solid OpenSCAD_Model
  facet normal 0 0 -1
    outer loop
      vertex -5 -8.66025 0
      vertex -5 8.66025 0
      vertex 10 0 0
    endloop
  endfacet
  facet normal 0.447214 0.774597 0.447214
    outer loop
      vertex -5 8.66025 0
      vertex 0 0 10
      vertex 10 0 0
    endloop
  endfacet
  facet normal -0.894427 0 0.447214
    outer loop
      vertex -5 -8.66025 0
      vertex 0 0 10
      vertex -5 8.66025 0
    endloop
  endfacet
  facet normal 0.447214 -0.774597 0.447214
    outer loop
      vertex -5 -8.66025 0
      vertex 10 0 0
      vertex 0 0 10
    endloop
  endfacet
endsolid OpenSCAD_Model
