solid OpenSCAD_Model
  facet normal 0 0 -1
    outer loop
      vertex -10 0 -5
      vertex -9.78148 2.07912 -5
      vertex -9.78148 -2.07912 -5
    endloop
  endfacet
  facet normal 0 0 -1
    outer loop
      vertex -9.78148 -2.07912 -5
      vertex -9.78148 2.07912 -5
      vertex -9.13546 4.06737 -5
    endloop
  endfacet
  facet normal 0 0 -1
    outer loop
      vertex -9.78148 -2.07912 -5
      vertex -9.13546 4.06737 -5
      vertex -8.09017 5.87785 -5
    endloop
  endfacet
  facet normal 0 0 -1
    outer loop
      vertex -9.78148 -2.07912 -5
      vertex -8.09017 5.87785 -5
      vertex -6.69131 7.43145 -5
    endloop
  endfacet
  facet normal 0 0 -1
    outer loop
      vertex -9.78148 -2.07912 -5
      vertex -6.69131 7.43145 -5
      vertex -5 8.66025 -5
    endloop
  endfacet
  facet normal 0 0 -1
    outer loop
      vertex -9.78148 -2.07912 -5
      vertex -5 8.66025 -5
      vertex -3.09017 9.51056 -5
    endloop
  endfacet
  facet normal 0 0 -1
    outer loop
      vertex -9.78148 -2.07912 -5
      vertex -3.09017 9.51056 -5
      vertex -1.04529 9.94522 -5
    endloop
  endfacet
  facet normal 0 0 -1
    outer loop
      vertex -4.06369 4.41434 -5
      vertex -1.04529 9.94522 -5
      vertex 1.04529 9.94522 -5
    endloop
  endfacet
  facet normal 0 0 -1
    outer loop
      vertex -2.41017 5.49464 -5
      vertex 1.04529 9.94522 -5
      vertex 3.09017 9.51056 -5
    endloop
  endfacet
  facet normal 0 0 -1
    outer loop
      vertex -0.495476 5.97951 -5
      vertex 3.09017 9.51056 -5
      vertex 5 8.66025 -5
    endloop
  endfacet
  facet normal 0 0 -1
    outer loop
      vertex 1.47291 5.8164 -5
      vertex 5 8.66025 -5
      vertex 6.69131 7.43145 -5
    endloop
  endfacet
  facet normal 0 0 -1
    outer loop
      vertex 3.28169 5.023 -5
      vertex 6.69131 7.43145 -5
      vertex 8.09017 5.87785 -5
    endloop
  endfacet
  facet normal 0 0 -1
    outer loop
      vertex 4.73484 3.68528 -5
      vertex 8.09017 5.87785 -5
      vertex 9.13546 4.06737 -5
    endloop
  endfacet
  facet normal 0 0 -1
    outer loop
      vertex 5.6749 1.9482 -5
      vertex 9.13546 4.06737 -5
      vertex 9.78148 2.07912 -5
    endloop
  endfacet
  facet normal 0 0 -1
    outer loop
      vertex 6 0 -5
      vertex 9.78148 2.07912 -5
      vertex 10 0 -5
    endloop
  endfacet
  facet normal 0 0 -1
    outer loop
      vertex 5.6749 -1.9482 -5
      vertex 10 0 -5
      vertex 9.78148 -2.07912 -5
    endloop
  endfacet
  facet normal 0 0 -1
    outer loop
      vertex 4.73484 -3.68528 -5
      vertex 9.13546 -4.06737 -5
      vertex 8.09017 -5.87785 -5
    endloop
  endfacet
  facet normal 0 0 -1
    outer loop
      vertex 3.28169 -5.023 -5
      vertex 8.09017 -5.87785 -5
      vertex 6.69131 -7.43145 -5
    endloop
  endfacet
  facet normal 0 0 -1
    outer loop
      vertex -0.495476 -5.97951 -5
      vertex 6.69131 -7.43145 -5
      vertex 5 -8.66025 -5
    endloop
  endfacet
  facet normal 0 0 -1
    outer loop
      vertex -2.41017 -5.49464 -5
      vertex 5 -8.66025 -5
      vertex 3.09017 -9.51056 -5
    endloop
  endfacet
  facet normal 0 0 -1
    outer loop
      vertex -9.78148 -2.07912 -5
      vertex 3.09017 -9.51056 -5
      vertex 1.04529 -9.94522 -5
    endloop
  endfacet
  facet normal 0 0 -1
    outer loop
      vertex -9.78148 -2.07912 -5
      vertex 1.04529 -9.94522 -5
      vertex -1.04529 -9.94522 -5
    endloop
  endfacet
  facet normal 0 0 -1
    outer loop
      vertex -9.78148 -2.07912 -5
      vertex -1.04529 -9.94522 -5
      vertex -3.09017 -9.51056 -5
    endloop
  endfacet
  facet normal 0 0 -1
    outer loop
      vertex -9.78148 -2.07912 -5
      vertex -3.09017 -9.51056 -5
      vertex -5 -8.66025 -5
    endloop
  endfacet
  facet normal 0 0 -1
    outer loop
      vertex -9.78148 -2.07912 -5
      vertex -5 -8.66025 -5
      vertex -6.69131 -7.43145 -5
    endloop
  endfacet
  facet normal 0 0 -1
    outer loop
      vertex -9.78148 -2.07912 -5
      vertex -6.69131 -7.43145 -5
      vertex -8.09017 -5.87785 -5
    endloop
  endfacet
  facet normal 0 0 -1
    outer loop
      vertex -9.78148 -2.07912 -5
      vertex -8.09017 -5.87785 -5
      vertex -9.13546 -4.06737 -5
    endloop
  endfacet
  facet normal 0 0 -1
    outer loop
      vertex -5.91817 -0.987568 -5
      vertex -9.78148 -2.07912 -5
      vertex -5.91817 0.987568 -5
    endloop
  endfacet
  facet normal 0 0 -1
    outer loop
      vertex -5.27684 -2.85568 -5
      vertex -9.78148 -2.07912 -5
      vertex -5.91817 -0.987568 -5
    endloop
  endfacet
  facet normal 0 0 -1
    outer loop
      vertex 5.6749 -1.9482 -5
      vertex 9.13546 -4.06737 -5
      vertex 4.73484 -3.68528 -5
    endloop
  endfacet
  facet normal 0 0 -1
    outer loop
      vertex 3.28169 -5.023 -5
      vertex 6.69131 -7.43145 -5
      vertex 1.47291 -5.8164 -5
    endloop
  endfacet
  facet normal 0 0 -1
    outer loop
      vertex -0.495476 -5.97951 -5
      vertex 5 -8.66025 -5
      vertex -2.41017 -5.49464 -5
    endloop
  endfacet
  facet normal 0 0 -1
    outer loop
      vertex -9.78148 -2.07912 -5
      vertex -2.41017 -5.49464 -5
      vertex 3.09017 -9.51056 -5
    endloop
  endfacet
  facet normal 0 0 -1
    outer loop
      vertex 1.47291 -5.8164 -5
      vertex 6.69131 -7.43145 -5
      vertex -0.495476 -5.97951 -5
    endloop
  endfacet
  facet normal 0 0 -1
    outer loop
      vertex -2.41017 -5.49464 -5
      vertex -9.78148 -2.07912 -5
      vertex -4.06369 -4.41434 -5
    endloop
  endfacet
  facet normal 0 0 -1
    outer loop
      vertex -4.06369 -4.41434 -5
      vertex -9.78148 -2.07912 -5
      vertex -5.27684 -2.85568 -5
    endloop
  endfacet
  facet normal 0 0 -1
    outer loop
      vertex 4.73484 -3.68528 -5
      vertex 8.09017 -5.87785 -5
      vertex 3.28169 -5.023 -5
    endloop
  endfacet
  facet normal 0 0 -1
    outer loop
      vertex 4.73484 3.68528 -5
      vertex 9.13546 4.06737 -5
      vertex 5.6749 1.9482 -5
    endloop
  endfacet
  facet normal 0 0 -1
    outer loop
      vertex 5.6749 1.9482 -5
      vertex 9.78148 2.07912 -5
      vertex 6 0 -5
    endloop
  endfacet
  facet normal 0 0 -1
    outer loop
      vertex 5.6749 -1.9482 -5
      vertex 9.78148 -2.07912 -5
      vertex 9.13546 -4.06737 -5
    endloop
  endfacet
  facet normal 0 0 -1
    outer loop
      vertex 6 0 -5
      vertex 10 0 -5
      vertex 5.6749 -1.9482 -5
    endloop
  endfacet
  facet normal 0 0 -1
    outer loop
      vertex -2.41017 5.49464 -5
      vertex 3.09017 9.51056 -5
      vertex -0.495476 5.97951 -5
    endloop
  endfacet
  facet normal 0 0 -1
    outer loop
      vertex -9.78148 -2.07912 -5
      vertex -1.04529 9.94522 -5
      vertex -4.06369 4.41434 -5
    endloop
  endfacet
  facet normal 0 0 -1
    outer loop
      vertex -0.495476 5.97951 -5
      vertex 5 8.66025 -5
      vertex 1.47291 5.8164 -5
    endloop
  endfacet
  facet normal 0 0 -1
    outer loop
      vertex -5.91817 0.987568 -5
      vertex -9.78148 -2.07912 -5
      vertex -5.27684 2.85568 -5
    endloop
  endfacet
  facet normal 0 0 -1
    outer loop
      vertex -4.06369 4.41434 -5
      vertex 1.04529 9.94522 -5
      vertex -2.41017 5.49464 -5
    endloop
  endfacet
  facet normal 0 0 -1
    outer loop
      vertex -5.27684 2.85568 -5
      vertex -9.78148 -2.07912 -5
      vertex -4.06369 4.41434 -5
    endloop
  endfacet
  facet normal 0 0 -1
    outer loop
      vertex 1.47291 5.8164 -5
      vertex 6.69131 7.43145 -5
      vertex 3.28169 5.023 -5
    endloop
  endfacet
  facet normal 0 0 -1
    outer loop
      vertex 3.28169 5.023 -5
      vertex 8.09017 5.87785 -5
      vertex 4.73484 3.68528 -5
    endloop
  endfacet
  facet normal -0.994522 0.104528 0
    outer loop
      vertex -10 0 -5
      vertex -10 0 5
      vertex -9.78148 2.07912 -5
    endloop
  endfacet
  facet normal -0.994522 0.104528 0
    outer loop
      vertex -9.78148 2.07912 -5
      vertex -10 0 5
      vertex -9.78148 2.07912 5
    endloop
  endfacet
  facet normal -0.994522 -0.104528 0
    outer loop
      vertex -10 0 -5
      vertex -9.78148 -2.07912 -5
      vertex -10 0 5
    endloop
  endfacet
  facet normal -0.994522 -0.104528 0
    outer loop
      vertex -10 0 5
      vertex -9.78148 -2.07912 -5
      vertex -9.78148 -2.07912 5
    endloop
  endfacet
  facet normal -0.951057 -0.309017 0
    outer loop
      vertex -9.78148 -2.07912 -5
      vertex -9.13546 -4.06737 -5
      vertex -9.78148 -2.07912 5
    endloop
  endfacet
  facet normal -0.951057 -0.309017 0
    outer loop
      vertex -9.78148 -2.07912 5
      vertex -9.13546 -4.06737 -5
      vertex -9.13546 -4.06737 5
    endloop
  endfacet
  facet normal -0.866025 -0.5 0
    outer loop
      vertex -9.13546 -4.06737 -5
      vertex -8.09017 -5.87785 -5
      vertex -9.13546 -4.06737 5
    endloop
  endfacet
  facet normal -0.866025 -0.5 0
    outer loop
      vertex -9.13546 -4.06737 5
      vertex -8.09017 -5.87785 -5
      vertex -8.09017 -5.87785 5
    endloop
  endfacet
  facet normal -0.743145 -0.669131 0
    outer loop
      vertex -8.09017 -5.87785 -5
      vertex -6.69131 -7.43145 -5
      vertex -8.09017 -5.87785 5
    endloop
  endfacet
  facet normal -0.743145 -0.669131 0
    outer loop
      vertex -8.09017 -5.87785 5
      vertex -6.69131 -7.43145 -5
      vertex -6.69131 -7.43145 5
    endloop
  endfacet
  facet normal -0.587785 -0.809017 0
    outer loop
      vertex -6.69131 -7.43145 5
      vertex -6.69131 -7.43145 -5
      vertex -5 -8.66025 -5
    endloop
  endfacet
  facet normal -0.587785 -0.809017 0
    outer loop
      vertex -5 -8.66025 5
      vertex -6.69131 -7.43145 5
      vertex -5 -8.66025 -5
    endloop
  endfacet
  facet normal -0.406737 -0.913545 0
    outer loop
      vertex -5 -8.66025 5
      vertex -5 -8.66025 -5
      vertex -3.09017 -9.51056 -5
    endloop
  endfacet
  facet normal -0.406737 -0.913545 0
    outer loop
      vertex -3.09017 -9.51056 5
      vertex -5 -8.66025 5
      vertex -3.09017 -9.51056 -5
    endloop
  endfacet
  facet normal -0.207912 -0.978148 0
    outer loop
      vertex -3.09017 -9.51056 5
      vertex -3.09017 -9.51056 -5
      vertex -1.04529 -9.94522 -5
    endloop
  endfacet
  facet normal -0.207912 -0.978148 0
    outer loop
      vertex -1.04529 -9.94522 5
      vertex -3.09017 -9.51056 5
      vertex -1.04529 -9.94522 -5
    endloop
  endfacet
  facet normal 0 -1 0
    outer loop
      vertex -1.04529 -9.94522 5
      vertex -1.04529 -9.94522 -5
      vertex 1.04529 -9.94522 -5
    endloop
  endfacet
  facet normal 0 -1 0
    outer loop
      vertex 1.04529 -9.94522 5
      vertex -1.04529 -9.94522 5
      vertex 1.04529 -9.94522 -5
    endloop
  endfacet
  facet normal 0.207912 -0.978148 0
    outer loop
      vertex 1.04529 -9.94522 5
      vertex 1.04529 -9.94522 -5
      vertex 3.09017 -9.51056 -5
    endloop
  endfacet
  facet normal 0.207912 -0.978148 0
    outer loop
      vertex 3.09017 -9.51056 5
      vertex 1.04529 -9.94522 5
      vertex 3.09017 -9.51056 -5
    endloop
  endfacet
  facet normal 0.406737 -0.913545 0
    outer loop
      vertex 3.09017 -9.51056 5
      vertex 3.09017 -9.51056 -5
      vertex 5 -8.66025 -5
    endloop
  endfacet
  facet normal 0.406737 -0.913545 0
    outer loop
      vertex 5 -8.66025 5
      vertex 3.09017 -9.51056 5
      vertex 5 -8.66025 -5
    endloop
  endfacet
  facet normal 0.587785 -0.809017 0
    outer loop
      vertex 5 -8.66025 5
      vertex 5 -8.66025 -5
      vertex 6.69131 -7.43145 -5
    endloop
  endfacet
  facet normal 0.587785 -0.809017 0
    outer loop
      vertex 6.69131 -7.43145 5
      vertex 5 -8.66025 5
      vertex 6.69131 -7.43145 -5
    endloop
  endfacet
  facet normal 0.743145 -0.669131 0
    outer loop
      vertex 6.69131 -7.43145 5
      vertex 6.69131 -7.43145 -5
      vertex 8.09017 -5.87785 -5
    endloop
  endfacet
  facet normal 0.743145 -0.669131 0
    outer loop
      vertex 8.09017 -5.87785 5
      vertex 6.69131 -7.43145 5
      vertex 8.09017 -5.87785 -5
    endloop
  endfacet
  facet normal 0.866025 -0.5 0
    outer loop
      vertex 8.09017 -5.87785 5
      vertex 8.09017 -5.87785 -5
      vertex 9.13546 -4.06737 -5
    endloop
  endfacet
  facet normal 0.866025 -0.5 0
    outer loop
      vertex 9.13546 -4.06737 5
      vertex 8.09017 -5.87785 5
      vertex 9.13546 -4.06737 -5
    endloop
  endfacet
  facet normal 0.951057 -0.309017 0
    outer loop
      vertex 9.13546 -4.06737 5
      vertex 9.13546 -4.06737 -5
      vertex 9.78148 -2.07912 -5
    endloop
  endfacet
  facet normal 0.951057 -0.309017 0
    outer loop
      vertex 9.78148 -2.07912 5
      vertex 9.13546 -4.06737 5
      vertex 9.78148 -2.07912 -5
    endloop
  endfacet
  facet normal 0.994522 -0.104528 0
    outer loop
      vertex 9.78148 -2.07912 5
      vertex 9.78148 -2.07912 -5
      vertex 10 0 -5
    endloop
  endfacet
  facet normal 0.994522 -0.104528 0
    outer loop
      vertex 10 0 5
      vertex 9.78148 -2.07912 5
      vertex 10 0 -5
    endloop
  endfacet
  facet normal 0.994522 0.104528 0
    outer loop
      vertex 10 0 -5
      vertex 9.78148 2.07912 -5
      vertex 9.78148 2.07912 5
    endloop
  endfacet
  facet normal 0.994522 0.104528 0
    outer loop
      vertex 10 0 5
      vertex 10 0 -5
      vertex 9.78148 2.07912 5
    endloop
  endfacet
  facet normal 0.951057 0.309017 0
    outer loop
      vertex 9.78148 2.07912 -5
      vertex 9.13546 4.06737 -5
      vertex 9.13546 4.06737 5
    endloop
  endfacet
  facet normal 0.951057 0.309017 0
    outer loop
      vertex 9.78148 2.07912 5
      vertex 9.78148 2.07912 -5
      vertex 9.13546 4.06737 5
    endloop
  endfacet
  facet normal 0.866025 0.5 0
    outer loop
      vertex 9.13546 4.06737 -5
      vertex 8.09017 5.87785 -5
      vertex 8.09017 5.87785 5
    endloop
  endfacet
  facet normal 0.866025 0.5 0
    outer loop
      vertex 9.13546 4.06737 5
      vertex 9.13546 4.06737 -5
      vertex 8.09017 5.87785 5
    endloop
  endfacet
  facet normal 0.743145 0.669131 0
    outer loop
      vertex 8.09017 5.87785 -5
      vertex 6.69131 7.43145 -5
      vertex 6.69131 7.43145 5
    endloop
  endfacet
  facet normal 0.743145 0.669131 0
    outer loop
      vertex 8.09017 5.87785 5
      vertex 8.09017 5.87785 -5
      vertex 6.69131 7.43145 5
    endloop
  endfacet
  facet normal 0.587785 0.809017 0
    outer loop
      vertex 5 8.66025 -5
      vertex 5 8.66025 5
      vertex 6.69131 7.43145 -5
    endloop
  endfacet
  facet normal 0.587785 0.809017 0
    outer loop
      vertex 6.69131 7.43145 -5
      vertex 5 8.66025 5
      vertex 6.69131 7.43145 5
    endloop
  endfacet
  facet normal 0.406737 0.913545 0
    outer loop
      vertex 3.09017 9.51056 -5
      vertex 3.09017 9.51056 5
      vertex 5 8.66025 -5
    endloop
  endfacet
  facet normal 0.406737 0.913545 0
    outer loop
      vertex 5 8.66025 -5
      vertex 3.09017 9.51056 5
      vertex 5 8.66025 5
    endloop
  endfacet
  facet normal 0.207912 0.978148 0
    outer loop
      vertex 1.04529 9.94522 -5
      vertex 1.04529 9.94522 5
      vertex 3.09017 9.51056 -5
    endloop
  endfacet
  facet normal 0.207912 0.978148 0
    outer loop
      vertex 3.09017 9.51056 -5
      vertex 1.04529 9.94522 5
      vertex 3.09017 9.51056 5
    endloop
  endfacet
  facet normal 0 1 0
    outer loop
      vertex -1.04529 9.94522 -5
      vertex -1.04529 9.94522 5
      vertex 1.04529 9.94522 -5
    endloop
  endfacet
  facet normal 0 1 0
    outer loop
      vertex 1.04529 9.94522 -5
      vertex -1.04529 9.94522 5
      vertex 1.04529 9.94522 5
    endloop
  endfacet
  facet normal -0.207912 0.978148 0
    outer loop
      vertex -3.09017 9.51056 -5
      vertex -3.09017 9.51056 5
      vertex -1.04529 9.94522 -5
    endloop
  endfacet
  facet normal -0.207912 0.978148 0
    outer loop
      vertex -1.04529 9.94522 -5
      vertex -3.09017 9.51056 5
      vertex -1.04529 9.94522 5
    endloop
  endfacet
  facet normal -0.406737 0.913545 0
    outer loop
      vertex -5 8.66025 -5
      vertex -5 8.66025 5
      vertex -3.09017 9.51056 -5
    endloop
  endfacet
  facet normal -0.406737 0.913545 0
    outer loop
      vertex -3.09017 9.51056 -5
      vertex -5 8.66025 5
      vertex -3.09017 9.51056 5
    endloop
  endfacet
  facet normal -0.587785 0.809017 0
    outer loop
      vertex -6.69131 7.43145 -5
      vertex -6.69131 7.43145 5
      vertex -5 8.66025 -5
    endloop
  endfacet
  facet normal -0.587785 0.809017 0
    outer loop
      vertex -5 8.66025 -5
      vertex -6.69131 7.43145 5
      vertex -5 8.66025 5
    endloop
  endfacet
  facet normal -0.743145 0.669131 0
    outer loop
      vertex -8.09017 5.87785 -5
      vertex -8.09017 5.87785 5
      vertex -6.69131 7.43145 -5
    endloop
  endfacet
  facet normal -0.743145 0.669131 0
    outer loop
      vertex -6.69131 7.43145 -5
      vertex -8.09017 5.87785 5
      vertex -6.69131 7.43145 5
    endloop
  endfacet
  facet normal -0.866025 0.5 0
    outer loop
      vertex -9.13546 4.06737 -5
      vertex -9.13546 4.06737 5
      vertex -8.09017 5.87785 -5
    endloop
  endfacet
  facet normal -0.866025 0.5 0
    outer loop
      vertex -8.09017 5.87785 -5
      vertex -9.13546 4.06737 5
      vertex -8.09017 5.87785 5
    endloop
  endfacet
  facet normal -0.951057 0.309017 0
    outer loop
      vertex -9.78148 2.07912 -5
      vertex -9.78148 2.07912 5
      vertex -9.13546 4.06737 -5
    endloop
  endfacet
  facet normal -0.951057 0.309017 0
    outer loop
      vertex -9.13546 4.06737 -5
      vertex -9.78148 2.07912 5
      vertex -9.13546 4.06737 5
    endloop
  endfacet
  facet normal 1 0 0
    outer loop
      vertex -5.91817 0.987568 -5
      vertex -5.91817 0.987568 5
      vertex -5.91817 -0.987568 5
    endloop
  endfacet
  facet normal 1 0 0
    outer loop
      vertex -5.91817 -0.987568 -5
      vertex -5.91817 0.987568 -5
      vertex -5.91817 -0.987568 5
    endloop
  endfacet
  facet normal 0.945817 -0.324699 0
    outer loop
      vertex -5.27684 2.85568 -5
      vertex -5.27684 2.85568 5
      vertex -5.91817 0.987568 5
    endloop
  endfacet
  facet normal 0.945817 -0.324699 0
    outer loop
      vertex -5.91817 0.987568 -5
      vertex -5.27684 2.85568 -5
      vertex -5.91817 0.987568 5
    endloop
  endfacet
  facet normal 0.78914 -0.614213 0
    outer loop
      vertex -4.06369 4.41434 -5
      vertex -4.06369 4.41434 5
      vertex -5.27684 2.85568 5
    endloop
  endfacet
  facet normal 0.78914 -0.614213 0
    outer loop
      vertex -5.27684 2.85568 -5
      vertex -4.06369 4.41434 -5
      vertex -5.27684 2.85568 5
    endloop
  endfacet
  facet normal 0.546949 -0.837166 0
    outer loop
      vertex -2.41017 5.49464 -5
      vertex -2.41017 5.49464 5
      vertex -4.06369 4.41434 5
    endloop
  endfacet
  facet normal 0.546949 -0.837166 0
    outer loop
      vertex -4.06369 4.41434 -5
      vertex -2.41017 5.49464 -5
      vertex -4.06369 4.41434 5
    endloop
  endfacet
  facet normal 0.245485 -0.9694 0
    outer loop
      vertex -0.495476 5.97951 -5
      vertex -0.495476 5.97951 5
      vertex -2.41017 5.49464 5
    endloop
  endfacet
  facet normal 0.245485 -0.9694 0
    outer loop
      vertex -2.41017 5.49464 -5
      vertex -0.495476 5.97951 -5
      vertex -2.41017 5.49464 5
    endloop
  endfacet
  facet normal -0.0825792 -0.996585 0
    outer loop
      vertex 1.47291 5.8164 -5
      vertex 1.47291 5.8164 5
      vertex -0.495476 5.97951 5
    endloop
  endfacet
  facet normal -0.0825792 -0.996585 0
    outer loop
      vertex -0.495476 5.97951 -5
      vertex 1.47291 5.8164 -5
      vertex -0.495476 5.97951 5
    endloop
  endfacet
  facet normal -0.401696 -0.915773 0
    outer loop
      vertex 3.28169 5.023 -5
      vertex 3.28169 5.023 5
      vertex 1.47291 5.8164 5
    endloop
  endfacet
  facet normal -0.401696 -0.915773 0
    outer loop
      vertex 1.47291 5.8164 -5
      vertex 3.28169 5.023 -5
      vertex 1.47291 5.8164 5
    endloop
  endfacet
  facet normal -0.677282 -0.735724 0
    outer loop
      vertex 4.73484 3.68528 -5
      vertex 4.73484 3.68528 5
      vertex 3.28169 5.023 5
    endloop
  endfacet
  facet normal -0.677282 -0.735724 0
    outer loop
      vertex 3.28169 5.023 -5
      vertex 4.73484 3.68528 -5
      vertex 3.28169 5.023 5
    endloop
  endfacet
  facet normal -0.879474 -0.475947 0
    outer loop
      vertex 5.6749 1.9482 5
      vertex 4.73484 3.68528 5
      vertex 5.6749 1.9482 -5
    endloop
  endfacet
  facet normal -0.879474 -0.475947 0
    outer loop
      vertex 5.6749 1.9482 -5
      vertex 4.73484 3.68528 5
      vertex 4.73484 3.68528 -5
    endloop
  endfacet
  facet normal -0.986361 -0.164595 0
    outer loop
      vertex 6 0 5
      vertex 5.6749 1.9482 5
      vertex 6 0 -5
    endloop
  endfacet
  facet normal -0.986361 -0.164595 0
    outer loop
      vertex 6 0 -5
      vertex 5.6749 1.9482 5
      vertex 5.6749 1.9482 -5
    endloop
  endfacet
  facet normal -0.986361 0.164595 0
    outer loop
      vertex 6 0 5
      vertex 6 0 -5
      vertex 5.6749 -1.9482 5
    endloop
  endfacet
  facet normal -0.986361 0.164595 0
    outer loop
      vertex 5.6749 -1.9482 5
      vertex 6 0 -5
      vertex 5.6749 -1.9482 -5
    endloop
  endfacet
  facet normal -0.879474 0.475947 0
    outer loop
      vertex 5.6749 -1.9482 5
      vertex 5.6749 -1.9482 -5
      vertex 4.73484 -3.68528 5
    endloop
  endfacet
  facet normal -0.879474 0.475947 0
    outer loop
      vertex 4.73484 -3.68528 5
      vertex 5.6749 -1.9482 -5
      vertex 4.73484 -3.68528 -5
    endloop
  endfacet
  facet normal -0.677282 0.735724 0
    outer loop
      vertex 4.73484 -3.68528 5
      vertex 4.73484 -3.68528 -5
      vertex 3.28169 -5.023 5
    endloop
  endfacet
  facet normal -0.677282 0.735724 0
    outer loop
      vertex 3.28169 -5.023 5
      vertex 4.73484 -3.68528 -5
      vertex 3.28169 -5.023 -5
    endloop
  endfacet
  facet normal -0.401696 0.915773 0
    outer loop
      vertex 3.28169 -5.023 5
      vertex 3.28169 -5.023 -5
      vertex 1.47291 -5.8164 5
    endloop
  endfacet
  facet normal -0.401696 0.915773 0
    outer loop
      vertex 1.47291 -5.8164 5
      vertex 3.28169 -5.023 -5
      vertex 1.47291 -5.8164 -5
    endloop
  endfacet
  facet normal -0.0825792 0.996585 0
    outer loop
      vertex 1.47291 -5.8164 5
      vertex 1.47291 -5.8164 -5
      vertex -0.495476 -5.97951 5
    endloop
  endfacet
  facet normal -0.0825792 0.996585 0
    outer loop
      vertex -0.495476 -5.97951 5
      vertex 1.47291 -5.8164 -5
      vertex -0.495476 -5.97951 -5
    endloop
  endfacet
  facet normal 0.245485 0.9694 0
    outer loop
      vertex -0.495476 -5.97951 5
      vertex -0.495476 -5.97951 -5
      vertex -2.41017 -5.49464 5
    endloop
  endfacet
  facet normal 0.245485 0.9694 0
    outer loop
      vertex -2.41017 -5.49464 5
      vertex -0.495476 -5.97951 -5
      vertex -2.41017 -5.49464 -5
    endloop
  endfacet
  facet normal 0.546949 0.837166 0
    outer loop
      vertex -2.41017 -5.49464 5
      vertex -2.41017 -5.49464 -5
      vertex -4.06369 -4.41434 5
    endloop
  endfacet
  facet normal 0.546949 0.837166 0
    outer loop
      vertex -4.06369 -4.41434 5
      vertex -2.41017 -5.49464 -5
      vertex -4.06369 -4.41434 -5
    endloop
  endfacet
  facet normal 0.78914 0.614213 0
    outer loop
      vertex -5.27684 -2.85568 5
      vertex -4.06369 -4.41434 5
      vertex -4.06369 -4.41434 -5
    endloop
  endfacet
  facet normal 0.78914 0.614213 0
    outer loop
      vertex -5.27684 -2.85568 -5
      vertex -5.27684 -2.85568 5
      vertex -4.06369 -4.41434 -5
    endloop
  endfacet
  facet normal 0.945817 0.324699 0
    outer loop
      vertex -5.91817 -0.987568 5
      vertex -5.27684 -2.85568 5
      vertex -5.27684 -2.85568 -5
    endloop
  endfacet
  facet normal 0.945817 0.324699 0
    outer loop
      vertex -5.91817 -0.987568 -5
      vertex -5.91817 -0.987568 5
      vertex -5.27684 -2.85568 -5
    endloop
  endfacet
  facet normal 0 0 1
    outer loop
      vertex -9.78148 2.07912 5
      vertex -10 0 5
      vertex -9.78148 -2.07912 5
    endloop
  endfacet
  facet normal 0 0 1
    outer loop
      vertex -8.09017 -5.87785 5
      vertex -9.78148 2.07912 5
      vertex -9.13546 -4.06737 5
    endloop
  endfacet
  facet normal 0 0 1
    outer loop
      vertex -9.13546 -4.06737 5
      vertex -9.78148 2.07912 5
      vertex -9.78148 -2.07912 5
    endloop
  endfacet
  facet normal 0 0 1
    outer loop
      vertex -6.69131 -7.43145 5
      vertex -9.78148 2.07912 5
      vertex -8.09017 -5.87785 5
    endloop
  endfacet
  facet normal 0 0 1
    outer loop
      vertex -5 -8.66025 5
      vertex -9.78148 2.07912 5
      vertex -6.69131 -7.43145 5
    endloop
  endfacet
  facet normal 0 0 1
    outer loop
      vertex -3.09017 -9.51056 5
      vertex -9.78148 2.07912 5
      vertex -5 -8.66025 5
    endloop
  endfacet
  facet normal 0 0 1
    outer loop
      vertex -1.04529 -9.94522 5
      vertex -9.78148 2.07912 5
      vertex -3.09017 -9.51056 5
    endloop
  endfacet
  facet normal 0 0 1
    outer loop
      vertex -4.06369 -4.41434 5
      vertex -9.78148 2.07912 5
      vertex -1.04529 -9.94522 5
    endloop
  endfacet
  facet normal 0 0 1
    outer loop
      vertex 5.6749 -1.9482 5
      vertex 4.73484 -3.68528 5
      vertex 9.13546 -4.06737 5
    endloop
  endfacet
  facet normal 0 0 1
    outer loop
      vertex 4.73484 3.68528 5
      vertex 9.78148 2.07912 5
      vertex 9.13546 4.06737 5
    endloop
  endfacet
  facet normal 0 0 1
    outer loop
      vertex -5.27684 2.85568 5
      vertex -4.06369 4.41434 5
      vertex -9.78148 2.07912 5
    endloop
  endfacet
  facet normal 0 0 1
    outer loop
      vertex 6 0 5
      vertex 5.6749 -1.9482 5
      vertex 9.78148 -2.07912 5
    endloop
  endfacet
  facet normal 0 0 1
    outer loop
      vertex -4.06369 4.41434 5
      vertex -2.41017 5.49464 5
      vertex -9.78148 2.07912 5
    endloop
  endfacet
  facet normal 0 0 1
    outer loop
      vertex 1.04529 9.94522 5
      vertex -9.78148 2.07912 5
      vertex 3.09017 9.51056 5
    endloop
  endfacet
  facet normal 0 0 1
    outer loop
      vertex -1.04529 9.94522 5
      vertex -9.78148 2.07912 5
      vertex 1.04529 9.94522 5
    endloop
  endfacet
  facet normal 0 0 1
    outer loop
      vertex -3.09017 9.51056 5
      vertex -9.78148 2.07912 5
      vertex -1.04529 9.94522 5
    endloop
  endfacet
  facet normal 0 0 1
    outer loop
      vertex -5 8.66025 5
      vertex -9.78148 2.07912 5
      vertex -3.09017 9.51056 5
    endloop
  endfacet
  facet normal 0 0 1
    outer loop
      vertex -6.69131 7.43145 5
      vertex -9.78148 2.07912 5
      vertex -5 8.66025 5
    endloop
  endfacet
  facet normal 0 0 1
    outer loop
      vertex -8.09017 5.87785 5
      vertex -9.78148 2.07912 5
      vertex -6.69131 7.43145 5
    endloop
  endfacet
  facet normal 0 0 1
    outer loop
      vertex -9.13546 4.06737 5
      vertex -9.78148 2.07912 5
      vertex -8.09017 5.87785 5
    endloop
  endfacet
  facet normal 0 0 1
    outer loop
      vertex -5.91817 0.987568 5
      vertex -5.27684 2.85568 5
      vertex -9.78148 2.07912 5
    endloop
  endfacet
  facet normal 0 0 1
    outer loop
      vertex 4.73484 -3.68528 5
      vertex 3.28169 -5.023 5
      vertex 8.09017 -5.87785 5
    endloop
  endfacet
  facet normal 0 0 1
    outer loop
      vertex 4.73484 3.68528 5
      vertex 5.6749 1.9482 5
      vertex 9.78148 2.07912 5
    endloop
  endfacet
  facet normal 0 0 1
    outer loop
      vertex 3.28169 5.023 5
      vertex 9.13546 4.06737 5
      vertex 8.09017 5.87785 5
    endloop
  endfacet
  facet normal 0 0 1
    outer loop
      vertex -2.41017 5.49464 5
      vertex -0.495476 5.97951 5
      vertex 5 8.66025 5
    endloop
  endfacet
  facet normal 0 0 1
    outer loop
      vertex 3.09017 9.51056 5
      vertex -2.41017 5.49464 5
      vertex 5 8.66025 5
    endloop
  endfacet
  facet normal 0 0 1
    outer loop
      vertex 3.09017 9.51056 5
      vertex -9.78148 2.07912 5
      vertex -2.41017 5.49464 5
    endloop
  endfacet
  facet normal 0 0 1
    outer loop
      vertex 5 8.66025 5
      vertex -0.495476 5.97951 5
      vertex 6.69131 7.43145 5
    endloop
  endfacet
  facet normal 0 0 1
    outer loop
      vertex -0.495476 5.97951 5
      vertex 1.47291 5.8164 5
      vertex 6.69131 7.43145 5
    endloop
  endfacet
  facet normal 0 0 1
    outer loop
      vertex 6.69131 7.43145 5
      vertex 3.28169 5.023 5
      vertex 8.09017 5.87785 5
    endloop
  endfacet
  facet normal 0 0 1
    outer loop
      vertex 3.28169 5.023 5
      vertex 4.73484 3.68528 5
      vertex 9.13546 4.06737 5
    endloop
  endfacet
  facet normal 0 0 1
    outer loop
      vertex 1.47291 5.8164 5
      vertex 3.28169 5.023 5
      vertex 6.69131 7.43145 5
    endloop
  endfacet
  facet normal 0 0 1
    outer loop
      vertex 9.78148 2.07912 5
      vertex 5.6749 1.9482 5
      vertex 10 0 5
    endloop
  endfacet
  facet normal 0 0 1
    outer loop
      vertex 10 0 5
      vertex 6 0 5
      vertex 9.78148 -2.07912 5
    endloop
  endfacet
  facet normal 0 0 1
    outer loop
      vertex 9.78148 -2.07912 5
      vertex 5.6749 -1.9482 5
      vertex 9.13546 -4.06737 5
    endloop
  endfacet
  facet normal 0 0 1
    outer loop
      vertex 9.13546 -4.06737 5
      vertex 4.73484 -3.68528 5
      vertex 8.09017 -5.87785 5
    endloop
  endfacet
  facet normal 0 0 1
    outer loop
      vertex 5.6749 1.9482 5
      vertex 6 0 5
      vertex 10 0 5
    endloop
  endfacet
  facet normal 0 0 1
    outer loop
      vertex 8.09017 -5.87785 5
      vertex 3.28169 -5.023 5
      vertex 6.69131 -7.43145 5
    endloop
  endfacet
  facet normal 0 0 1
    outer loop
      vertex 6.69131 -7.43145 5
      vertex 1.47291 -5.8164 5
      vertex 5 -8.66025 5
    endloop
  endfacet
  facet normal 0 0 1
    outer loop
      vertex -2.41017 -5.49464 5
      vertex -4.06369 -4.41434 5
      vertex 1.04529 -9.94522 5
    endloop
  endfacet
  facet normal 0 0 1
    outer loop
      vertex 5 -8.66025 5
      vertex -0.495476 -5.97951 5
      vertex 3.09017 -9.51056 5
    endloop
  endfacet
  facet normal 0 0 1
    outer loop
      vertex 3.09017 -9.51056 5
      vertex -2.41017 -5.49464 5
      vertex 1.04529 -9.94522 5
    endloop
  endfacet
  facet normal 0 0 1
    outer loop
      vertex 3.28169 -5.023 5
      vertex 1.47291 -5.8164 5
      vertex 6.69131 -7.43145 5
    endloop
  endfacet
  facet normal 0 0 1
    outer loop
      vertex 1.04529 -9.94522 5
      vertex -4.06369 -4.41434 5
      vertex -1.04529 -9.94522 5
    endloop
  endfacet
  facet normal 0 0 1
    outer loop
      vertex -4.06369 -4.41434 5
      vertex -5.27684 -2.85568 5
      vertex -9.78148 2.07912 5
    endloop
  endfacet
  facet normal 0 0 1
    outer loop
      vertex -5.27684 -2.85568 5
      vertex -5.91817 -0.987568 5
      vertex -9.78148 2.07912 5
    endloop
  endfacet
  facet normal 0 0 1
    outer loop
      vertex 1.47291 -5.8164 5
      vertex -0.495476 -5.97951 5
      vertex 5 -8.66025 5
    endloop
  endfacet
  facet normal 0 0 1
    outer loop
      vertex -0.495476 -5.97951 5
      vertex -2.41017 -5.49464 5
      vertex 3.09017 -9.51056 5
    endloop
  endfacet
  facet normal 0 0 1
    outer loop
      vertex -5.91817 -0.987568 5
      vertex -5.91817 0.987568 5
      vertex -9.78148 2.07912 5
    endloop
  endfacet
endsolid OpenSCAD_Model
