solid Default
  facet normal 0.000000 -1.000000 0.000000
    outer loop
      vertex 10.499999 -5.999999 0.000000
      vertex 10.499999 -5.999999 11.000000
      vertex -10.500001 -6.000000 0.000000
    endloop
  endfacet
  facet normal 0.000000 -1.000000 0.000000
    outer loop
      vertex -10.500001 -6.000000 0.000000
      vertex 10.499999 -5.999999 11.000000
      vertex -10.500001 -6.000000 11.000000
    endloop
  endfacet
  facet normal 1.000000 0.000000 0.000000
    outer loop
      vertex 10.499999 -5.999999 11.000000
      vertex 10.499999 -5.999999 0.000000
      vertex 10.499999 -4.000000 0.000000
    endloop
  endfacet
  facet normal 1.000000 0.000000 0.000000
    outer loop
      vertex 10.500000 4.000000 9.000000
      vertex 10.499999 -5.999999 11.000000
      vertex 10.499999 -4.000000 9.000000
    endloop
  endfacet
  facet normal 1.000000 0.000000 0.000000
    outer loop
      vertex 10.499999 -4.000000 9.000000
      vertex 10.499999 -5.999999 11.000000
      vertex 10.499999 -4.000000 0.000000
    endloop
  endfacet
  facet normal 1.000000 0.000000 0.000000
    outer loop
      vertex 10.500001 6.000000 11.000000
      vertex 10.499999 -5.999999 11.000000
      vertex 10.500000 4.000000 9.000000
    endloop
  endfacet
  facet normal 1.000000 0.000000 0.000000
    outer loop
      vertex 10.500001 6.000000 0.000000
      vertex 10.500000 4.000000 9.000000
      vertex 10.500000 4.000000 0.000000
    endloop
  endfacet
  facet normal 1.000000 0.000000 0.000000
    outer loop
      vertex 10.500001 6.000000 11.000000
      vertex 10.500000 4.000000 9.000000
      vertex 10.500001 6.000000 0.000000
    endloop
  endfacet
  facet normal 0.000000 0.000000 -1.000000
    outer loop
      vertex 10.499999 -5.999999 0.000000
      vertex -10.500001 -6.000000 0.000000
      vertex 10.499999 -4.000000 0.000000
    endloop
  endfacet
  facet normal 0.000000 0.000000 -1.000000
    outer loop
      vertex -8.499999 4.000000 0.000000
      vertex -10.500001 -6.000000 0.000000
      vertex -10.499999 5.999999 0.000000
    endloop
  endfacet
  facet normal 0.000000 0.000000 -1.000000
    outer loop
      vertex 10.500000 4.000000 0.000000
      vertex -10.499999 5.999999 0.000000
      vertex 10.500001 6.000000 0.000000
    endloop
  endfacet
  facet normal 0.000000 0.000000 -1.000000
    outer loop
      vertex -8.500000 -4.000000 0.000000
      vertex -10.500001 -6.000000 0.000000
      vertex -8.499999 4.000000 0.000000
    endloop
  endfacet
  facet normal 0.000000 0.000000 -1.000000
    outer loop
      vertex 10.499999 -4.000000 0.000000
      vertex -10.500001 -6.000000 0.000000
      vertex -8.500000 -4.000000 0.000000
    endloop
  endfacet
  facet normal 0.000000 0.000000 -1.000000
    outer loop
      vertex -8.499999 4.000000 0.000000
      vertex -10.499999 5.999999 0.000000
      vertex 10.500000 4.000000 0.000000
    endloop
  endfacet
  facet normal -1.000000 0.000000 0.000000
    outer loop
      vertex -10.500001 -6.000000 0.000000
      vertex -10.500001 -6.000000 11.000000
      vertex -10.499999 5.999999 0.000000
    endloop
  endfacet
  facet normal -1.000000 0.000000 0.000000
    outer loop
      vertex -10.499999 5.999999 0.000000
      vertex -10.500001 -6.000000 11.000000
      vertex -10.499999 5.999999 11.000000
    endloop
  endfacet
  facet normal 0.000000 0.000000 1.000000
    outer loop
      vertex -10.500001 -6.000000 11.000000
      vertex 10.499999 -5.999999 11.000000
      vertex 10.500001 6.000000 11.000000
    endloop
  endfacet
  facet normal 0.000000 0.000000 1.000000
    outer loop
      vertex -10.499999 5.999999 11.000000
      vertex -10.500001 -6.000000 11.000000
      vertex 10.500001 6.000000 11.000000
    endloop
  endfacet
  facet normal 0.000000 1.000000 0.000000
    outer loop
      vertex 10.500001 6.000000 11.000000
      vertex 10.500001 6.000000 0.000000
      vertex -10.499999 5.999999 0.000000
    endloop
  endfacet
  facet normal 0.000000 1.000000 0.000000
    outer loop
      vertex -10.499999 5.999999 11.000000
      vertex 10.500001 6.000000 11.000000
      vertex -10.499999 5.999999 0.000000
    endloop
  endfacet
  facet normal 0.000000 -1.000000 0.000000
    outer loop
      vertex 10.500000 4.000000 0.000000
      vertex 10.500000 4.000000 9.000000
      vertex -8.499999 4.000000 0.000000
    endloop
  endfacet
  facet normal 0.000000 -1.000000 0.000000
    outer loop
      vertex -8.499999 4.000000 0.000000
      vertex 10.500000 4.000000 9.000000
      vertex -8.499999 4.000000 9.000000
    endloop
  endfacet
  facet normal 0.000000 0.000000 -1.000000
    outer loop
      vertex 10.499999 -4.000000 9.000000
      vertex -8.500000 -4.000000 9.000000
      vertex 10.500000 4.000000 9.000000
    endloop
  endfacet
  facet normal 0.000000 0.000000 -1.000000
    outer loop
      vertex 10.500000 4.000000 9.000000
      vertex -8.500000 -4.000000 9.000000
      vertex -8.499999 4.000000 9.000000
    endloop
  endfacet
  facet normal 0.000000 1.000000 0.000000
    outer loop
      vertex 10.499999 -4.000000 9.000000
      vertex 10.499999 -4.000000 0.000000
      vertex -8.500000 -4.000000 0.000000
    endloop
  endfacet
  facet normal 0.000000 1.000000 0.000000
    outer loop
      vertex -8.500000 -4.000000 9.000000
      vertex 10.499999 -4.000000 9.000000
      vertex -8.500000 -4.000000 0.000000
    endloop
  endfacet
  facet normal 1.000000 0.000000 0.000000
    outer loop
      vertex -8.500000 -4.000000 9.000000
      vertex -8.500000 -4.000000 0.000000
      vertex -8.499999 4.000000 0.000000
    endloop
  endfacet
  facet normal 1.000000 0.000000 0.000000
    outer loop
      vertex -8.499999 4.000000 9.000000
      vertex -8.500000 -4.000000 9.000000
      vertex -8.499999 4.000000 0.000000
    endloop
  endfacet
endsolid Default
