solid OpenSCAD_Model
  facet normal 0.998027 0.062791 0
    outer loop
      vertex 10 0 10
      vertex 9.92115 1.25333 -10
      vertex 9.92115 1.25333 10
    endloop
  endfacet
  facet normal 0.998027 0.062791 0
    outer loop
      vertex 9.92115 1.25333 -10
      vertex 10 0 10
      vertex 10 0 -10
    endloop
  endfacet
  facet normal -0.998027 0.062791 0
    outer loop
      vertex -10 0 -10
      vertex -9.92115 1.25333 10
      vertex -9.92115 1.25333 -10
    endloop
  endfacet
  facet normal -0.998027 0.062791 0
    outer loop
      vertex -9.92115 1.25333 10
      vertex -10 0 -10
      vertex -10 0 10
    endloop
  endfacet
  facet normal 0 1 -0
    outer loop
      vertex 0.627905 9.98027 -10
      vertex -0.627905 9.98027 10
      vertex 0.627905 9.98027 10
    endloop
  endfacet
  facet normal 0 1 0
    outer loop
      vertex -0.627905 9.98027 10
      vertex 0.627905 9.98027 -10
      vertex -0.627905 9.98027 -10
    endloop
  endfacet
  facet normal 0.684547 0.728969 -0
    outer loop
      vertex 7.28969 6.84547 -10
      vertex 6.37424 7.70513 10
      vertex 7.28969 6.84547 10
    endloop
  endfacet
  facet normal 0.684547 0.728969 0
    outer loop
      vertex 6.37424 7.70513 10
      vertex 7.28969 6.84547 -10
      vertex 6.37424 7.70513 -10
    endloop
  endfacet
  facet normal -0.684547 0.728969 0
    outer loop
      vertex -6.37424 7.70513 -10
      vertex -7.28969 6.84547 10
      vertex -6.37424 7.70513 10
    endloop
  endfacet
  facet normal -0.684547 0.728969 0
    outer loop
      vertex -7.28969 6.84547 10
      vertex -6.37424 7.70513 -10
      vertex -7.28969 6.84547 -10
    endloop
  endfacet
  facet normal -0.368125 0.929776 0
    outer loop
      vertex -3.09017 9.51056 -10
      vertex -4.25779 9.04827 10
      vertex -3.09017 9.51056 10
    endloop
  endfacet
  facet normal -0.368125 0.929776 0
    outer loop
      vertex -4.25779 9.04827 10
      vertex -3.09017 9.51056 -10
      vertex -4.25779 9.04827 -10
    endloop
  endfacet
  facet normal 0.904827 0.425779 0
    outer loop
      vertex 9.29776 3.68124 10
      vertex 8.76307 4.81754 -10
      vertex 8.76307 4.81754 10
    endloop
  endfacet
  facet normal 0.904827 0.425779 0
    outer loop
      vertex 8.76307 4.81754 -10
      vertex 9.29776 3.68124 10
      vertex 9.29776 3.68124 -10
    endloop
  endfacet
  facet normal 0.844328 0.535826 0
    outer loop
      vertex 8.76307 4.81754 10
      vertex 8.09017 5.87785 -10
      vertex 8.09017 5.87785 10
    endloop
  endfacet
  facet normal 0.844328 0.535826 0
    outer loop
      vertex 8.09017 5.87785 -10
      vertex 8.76307 4.81754 10
      vertex 8.76307 4.81754 -10
    endloop
  endfacet
  facet normal 0.368125 0.929776 -0
    outer loop
      vertex 4.25779 9.04827 -10
      vertex 3.09017 9.51056 10
      vertex 4.25779 9.04827 10
    endloop
  endfacet
  facet normal 0.368125 0.929776 0
    outer loop
      vertex 3.09017 9.51056 10
      vertex 4.25779 9.04827 -10
      vertex 3.09017 9.51056 -10
    endloop
  endfacet
  facet normal 0.24869 0.968583 -0
    outer loop
      vertex 3.09017 9.51056 -10
      vertex 1.87381 9.82287 10
      vertex 3.09017 9.51056 10
    endloop
  endfacet
  facet normal 0.24869 0.968583 0
    outer loop
      vertex 1.87381 9.82287 10
      vertex 3.09017 9.51056 -10
      vertex 1.87381 9.82287 -10
    endloop
  endfacet
  facet normal 0.587786 0.809017 -0
    outer loop
      vertex 6.37424 7.70513 -10
      vertex 5.35827 8.44328 10
      vertex 6.37424 7.70513 10
    endloop
  endfacet
  facet normal 0.587786 0.809017 0
    outer loop
      vertex 5.35827 8.44328 10
      vertex 6.37424 7.70513 -10
      vertex 5.35827 8.44328 -10
    endloop
  endfacet
  facet normal -0.844328 0.535826 0
    outer loop
      vertex -8.76307 4.81754 -10
      vertex -8.09017 5.87785 10
      vertex -8.09017 5.87785 -10
    endloop
  endfacet
  facet normal -0.844328 0.535826 0
    outer loop
      vertex -8.09017 5.87785 10
      vertex -8.76307 4.81754 -10
      vertex -8.76307 4.81754 10
    endloop
  endfacet
  facet normal -0.770513 0.637424 0
    outer loop
      vertex -8.09017 5.87785 -10
      vertex -7.28969 6.84547 10
      vertex -7.28969 6.84547 -10
    endloop
  endfacet
  facet normal -0.770513 0.637424 0
    outer loop
      vertex -7.28969 6.84547 10
      vertex -8.09017 5.87785 -10
      vertex -8.09017 5.87785 10
    endloop
  endfacet
  facet normal -0.951057 0.309017 0
    outer loop
      vertex -9.68583 2.4869 -10
      vertex -9.29776 3.68124 10
      vertex -9.29776 3.68124 -10
    endloop
  endfacet
  facet normal -0.951057 0.309017 0
    outer loop
      vertex -9.29776 3.68124 10
      vertex -9.68583 2.4869 -10
      vertex -9.68583 2.4869 10
    endloop
  endfacet
  facet normal -0.481754 0.876307 0
    outer loop
      vertex -4.25779 9.04827 -10
      vertex -5.35827 8.44328 10
      vertex -4.25779 9.04827 10
    endloop
  endfacet
  facet normal -0.481754 0.876307 0
    outer loop
      vertex -5.35827 8.44328 10
      vertex -4.25779 9.04827 -10
      vertex -5.35827 8.44328 -10
    endloop
  endfacet
  facet normal -0.125333 0.992115 0
    outer loop
      vertex -0.627905 9.98027 -10
      vertex -1.87381 9.82287 10
      vertex -0.627905 9.98027 10
    endloop
  endfacet
  facet normal -0.125333 0.992115 0
    outer loop
      vertex -1.87381 9.82287 10
      vertex -0.627905 9.98027 -10
      vertex -1.87381 9.82287 -10
    endloop
  endfacet
  facet normal 0.998027 -0.062791 0
    outer loop
      vertex 9.92115 -1.25333 10
      vertex 10 0 -10
      vertex 10 0 10
    endloop
  endfacet
  facet normal 0.998027 -0.062791 0
    outer loop
      vertex 10 0 -10
      vertex 9.92115 -1.25333 10
      vertex 9.92115 -1.25333 -10
    endloop
  endfacet
  facet normal -0.24869 -0.968583 0
    outer loop
      vertex -3.09017 -9.51056 -10
      vertex -1.87381 -9.82287 10
      vertex -3.09017 -9.51056 10
    endloop
  endfacet
  facet normal -0.24869 -0.968583 -0
    outer loop
      vertex -1.87381 -9.82287 10
      vertex -3.09017 -9.51056 -10
      vertex -1.87381 -9.82287 -10
    endloop
  endfacet
  facet normal 0.125333 -0.992115 0
    outer loop
      vertex 0.627905 -9.98027 -10
      vertex 1.87381 -9.82287 10
      vertex 0.627905 -9.98027 10
    endloop
  endfacet
  facet normal 0.125333 -0.992115 0
    outer loop
      vertex 1.87381 -9.82287 10
      vertex 0.627905 -9.98027 -10
      vertex 1.87381 -9.82287 -10
    endloop
  endfacet
  facet normal 0.951057 0.309017 0
    outer loop
      vertex 9.68583 2.4869 10
      vertex 9.29776 3.68124 -10
      vertex 9.29776 3.68124 10
    endloop
  endfacet
  facet normal 0.951057 0.309017 0
    outer loop
      vertex 9.29776 3.68124 -10
      vertex 9.68583 2.4869 10
      vertex 9.68583 2.4869 -10
    endloop
  endfacet
  facet normal 0.982287 0.187381 0
    outer loop
      vertex 9.92115 1.25333 10
      vertex 9.68583 2.4869 -10
      vertex 9.68583 2.4869 10
    endloop
  endfacet
  facet normal 0.982287 0.187381 0
    outer loop
      vertex 9.68583 2.4869 -10
      vertex 9.92115 1.25333 10
      vertex 9.92115 1.25333 -10
    endloop
  endfacet
  facet normal 0.770513 0.637424 0
    outer loop
      vertex 8.09017 5.87785 10
      vertex 7.28969 6.84547 -10
      vertex 7.28969 6.84547 10
    endloop
  endfacet
  facet normal 0.770513 0.637424 0
    outer loop
      vertex 7.28969 6.84547 -10
      vertex 8.09017 5.87785 10
      vertex 8.09017 5.87785 -10
    endloop
  endfacet
  facet normal 0.125333 0.992115 -0
    outer loop
      vertex 1.87381 9.82287 -10
      vertex 0.627905 9.98027 10
      vertex 1.87381 9.82287 10
    endloop
  endfacet
  facet normal 0.125333 0.992115 0
    outer loop
      vertex 0.627905 9.98027 10
      vertex 1.87381 9.82287 -10
      vertex 0.627905 9.98027 -10
    endloop
  endfacet
  facet normal 0.481754 0.876307 -0
    outer loop
      vertex 5.35827 8.44328 -10
      vertex 4.25779 9.04827 10
      vertex 5.35827 8.44328 10
    endloop
  endfacet
  facet normal 0.481754 0.876307 0
    outer loop
      vertex 4.25779 9.04827 10
      vertex 5.35827 8.44328 -10
      vertex 4.25779 9.04827 -10
    endloop
  endfacet
  facet normal -0.904827 0.425779 0
    outer loop
      vertex -9.29776 3.68124 -10
      vertex -8.76307 4.81754 10
      vertex -8.76307 4.81754 -10
    endloop
  endfacet
  facet normal -0.904827 0.425779 0
    outer loop
      vertex -8.76307 4.81754 10
      vertex -9.29776 3.68124 -10
      vertex -9.29776 3.68124 10
    endloop
  endfacet
  facet normal 0.951057 -0.309017 0
    outer loop
      vertex 9.29776 -3.68124 10
      vertex 9.68583 -2.4869 -10
      vertex 9.68583 -2.4869 10
    endloop
  endfacet
  facet normal 0.951057 -0.309017 0
    outer loop
      vertex 9.68583 -2.4869 -10
      vertex 9.29776 -3.68124 10
      vertex 9.29776 -3.68124 -10
    endloop
  endfacet
  facet normal 0.982287 -0.187381 0
    outer loop
      vertex 9.68583 -2.4869 10
      vertex 9.92115 -1.25333 -10
      vertex 9.92115 -1.25333 10
    endloop
  endfacet
  facet normal 0.982287 -0.187381 0
    outer loop
      vertex 9.92115 -1.25333 -10
      vertex 9.68583 -2.4869 10
      vertex 9.68583 -2.4869 -10
    endloop
  endfacet
  facet normal -0.125333 -0.992115 0
    outer loop
      vertex -1.87381 -9.82287 -10
      vertex -0.627905 -9.98027 10
      vertex -1.87381 -9.82287 10
    endloop
  endfacet
  facet normal -0.125333 -0.992115 -0
    outer loop
      vertex -0.627905 -9.98027 10
      vertex -1.87381 -9.82287 -10
      vertex -0.627905 -9.98027 -10
    endloop
  endfacet
  facet normal -0.951057 -0.309017 0
    outer loop
      vertex -9.29776 -3.68124 -10
      vertex -9.68583 -2.4869 10
      vertex -9.68583 -2.4869 -10
    endloop
  endfacet
  facet normal -0.951057 -0.309017 0
    outer loop
      vertex -9.68583 -2.4869 10
      vertex -9.29776 -3.68124 -10
      vertex -9.29776 -3.68124 10
    endloop
  endfacet
  facet normal 0.368125 -0.929776 0
    outer loop
      vertex 3.09017 -9.51056 -10
      vertex 4.25779 -9.04827 10
      vertex 3.09017 -9.51056 10
    endloop
  endfacet
  facet normal 0.368125 -0.929776 0
    outer loop
      vertex 4.25779 -9.04827 10
      vertex 3.09017 -9.51056 -10
      vertex 4.25779 -9.04827 -10
    endloop
  endfacet
  facet normal 0.24869 -0.968583 0
    outer loop
      vertex 1.87381 -9.82287 -10
      vertex 3.09017 -9.51056 10
      vertex 1.87381 -9.82287 10
    endloop
  endfacet
  facet normal 0.24869 -0.968583 0
    outer loop
      vertex 3.09017 -9.51056 10
      vertex 1.87381 -9.82287 -10
      vertex 3.09017 -9.51056 -10
    endloop
  endfacet
  facet normal 0 0 1
    outer loop
      vertex 8 0 10
      vertex 10 0 10
      vertex 9.92115 1.25333 10
    endloop
  endfacet
  facet normal 0 0 1
    outer loop
      vertex 7.93692 1.00267 10
      vertex 9.92115 1.25333 10
      vertex 9.68583 2.4869 10
    endloop
  endfacet
  facet normal 0 0 1
    outer loop
      vertex 10 0 10
      vertex 8 0 10
      vertex 9.92115 -1.25333 10
    endloop
  endfacet
  facet normal 0 0 1
    outer loop
      vertex 7.74866 1.98952 10
      vertex 9.68583 2.4869 10
      vertex 9.29776 3.68124 10
    endloop
  endfacet
  facet normal -0 0 1
    outer loop
      vertex 7.93692 -1.00267 10
      vertex 9.92115 -1.25333 10
      vertex 8 0 10
    endloop
  endfacet
  facet normal 0 0 1
    outer loop
      vertex 7.43821 2.945 10
      vertex 9.29776 3.68124 10
      vertex 8.76307 4.81754 10
    endloop
  endfacet
  facet normal 0 0 1
    outer loop
      vertex 9.92115 -1.25333 10
      vertex 7.93692 -1.00267 10
      vertex 9.68583 -2.4869 10
    endloop
  endfacet
  facet normal 0 0 1
    outer loop
      vertex 7.01045 3.85403 10
      vertex 8.76307 4.81754 10
      vertex 8.09017 5.87785 10
    endloop
  endfacet
  facet normal -0 0 1
    outer loop
      vertex 7.74866 -1.98952 10
      vertex 9.68583 -2.4869 10
      vertex 7.93692 -1.00267 10
    endloop
  endfacet
  facet normal 0 0 1
    outer loop
      vertex 9.68583 -2.4869 10
      vertex 7.74866 -1.98952 10
      vertex 9.29776 -3.68124 10
    endloop
  endfacet
  facet normal 0 0 1
    outer loop
      vertex 9.92115 1.25333 10
      vertex 7.93692 1.00267 10
      vertex 8 0 10
    endloop
  endfacet
  facet normal 0 0 1
    outer loop
      vertex 9.68583 2.4869 10
      vertex 7.74866 1.98952 10
      vertex 7.93692 1.00267 10
    endloop
  endfacet
  facet normal 0 0 1
    outer loop
      vertex 9.29776 3.68124 10
      vertex 7.43821 2.945 10
      vertex 7.74866 1.98952 10
    endloop
  endfacet
  facet normal 0 0 1
    outer loop
      vertex 6.47214 4.70228 10
      vertex 8.09017 5.87785 10
      vertex 7.28969 6.84547 10
    endloop
  endfacet
  facet normal 0 0 1
    outer loop
      vertex 8.76307 4.81754 10
      vertex 7.01045 3.85403 10
      vertex 7.43821 2.945 10
    endloop
  endfacet
  facet normal 0 0 1
    outer loop
      vertex 8.09017 5.87785 10
      vertex 6.47214 4.70228 10
      vertex 7.01045 3.85403 10
    endloop
  endfacet
  facet normal 0 0 1
    outer loop
      vertex 5.83175 5.47638 10
      vertex 7.28969 6.84547 10
      vertex 6.37424 7.70513 10
    endloop
  endfacet
  facet normal 0 0 1
    outer loop
      vertex 7.28969 6.84547 10
      vertex 5.83175 5.47638 10
      vertex 6.47214 4.70228 10
    endloop
  endfacet
  facet normal 0 0 1
    outer loop
      vertex 5.09939 6.16411 10
      vertex 6.37424 7.70513 10
      vertex 5.35827 8.44328 10
    endloop
  endfacet
  facet normal 0 0 1
    outer loop
      vertex 6.37424 7.70513 10
      vertex 5.09939 6.16411 10
      vertex 5.83175 5.47638 10
    endloop
  endfacet
  facet normal 0 0 1
    outer loop
      vertex 5.35827 8.44328 10
      vertex 4.28661 6.75462 10
      vertex 5.09939 6.16411 10
    endloop
  endfacet
  facet normal 0 0 1
    outer loop
      vertex 4.25779 9.04827 10
      vertex 4.28661 6.75462 10
      vertex 5.35827 8.44328 10
    endloop
  endfacet
  facet normal 0 0 1
    outer loop
      vertex 4.25779 9.04827 10
      vertex 3.40623 7.23862 10
      vertex 4.28661 6.75462 10
    endloop
  endfacet
  facet normal 0 0 1
    outer loop
      vertex 3.09017 9.51056 10
      vertex 3.40623 7.23862 10
      vertex 4.25779 9.04827 10
    endloop
  endfacet
  facet normal 0 0 1
    outer loop
      vertex 3.09017 9.51056 10
      vertex 2.47214 7.60845 10
      vertex 3.40623 7.23862 10
    endloop
  endfacet
  facet normal 0 0 1
    outer loop
      vertex 1.87381 9.82287 10
      vertex 2.47214 7.60845 10
      vertex 3.09017 9.51056 10
    endloop
  endfacet
  facet normal 0 0 1
    outer loop
      vertex 1.87381 9.82287 10
      vertex 1.49905 7.8583 10
      vertex 2.47214 7.60845 10
    endloop
  endfacet
  facet normal 0 0 1
    outer loop
      vertex 0.627905 9.98027 10
      vertex 1.49905 7.8583 10
      vertex 1.87381 9.82287 10
    endloop
  endfacet
  facet normal 0 0 1
    outer loop
      vertex 0.627905 9.98027 10
      vertex 0.502324 7.98421 10
      vertex 1.49905 7.8583 10
    endloop
  endfacet
  facet normal 0 0 1
    outer loop
      vertex 0.627905 9.98027 10
      vertex -0.502324 7.98421 10
      vertex 0.502324 7.98421 10
    endloop
  endfacet
  facet normal -0 0 1
    outer loop
      vertex -0.627905 9.98027 10
      vertex -0.502324 7.98421 10
      vertex 0.627905 9.98027 10
    endloop
  endfacet
  facet normal 0 0 1
    outer loop
      vertex -0.627905 9.98027 10
      vertex -1.49905 7.8583 10
      vertex -0.502324 7.98421 10
    endloop
  endfacet
  facet normal -0 0 1
    outer loop
      vertex -1.87381 9.82287 10
      vertex -1.49905 7.8583 10
      vertex -0.627905 9.98027 10
    endloop
  endfacet
  facet normal 0 0 1
    outer loop
      vertex -1.87381 9.82287 10
      vertex -2.47214 7.60845 10
      vertex -1.49905 7.8583 10
    endloop
  endfacet
  facet normal -0 0 1
    outer loop
      vertex -3.09017 9.51056 10
      vertex -2.47214 7.60845 10
      vertex -1.87381 9.82287 10
    endloop
  endfacet
  facet normal 0 0 1
    outer loop
      vertex -3.09017 9.51056 10
      vertex -3.40623 7.23862 10
      vertex -2.47214 7.60845 10
    endloop
  endfacet
  facet normal -0 0 1
    outer loop
      vertex -4.25779 9.04827 10
      vertex -3.40623 7.23862 10
      vertex -3.09017 9.51056 10
    endloop
  endfacet
  facet normal 0 0 1
    outer loop
      vertex -4.25779 9.04827 10
      vertex -4.28661 6.75462 10
      vertex -3.40623 7.23862 10
    endloop
  endfacet
  facet normal -0 0 1
    outer loop
      vertex -5.35827 8.44328 10
      vertex -4.28661 6.75462 10
      vertex -4.25779 9.04827 10
    endloop
  endfacet
  facet normal 0 0 1
    outer loop
      vertex -4.28661 6.75462 10
      vertex -5.35827 8.44328 10
      vertex -5.09939 6.16411 10
    endloop
  endfacet
  facet normal -0 0 1
    outer loop
      vertex -6.37424 7.70513 10
      vertex -5.09939 6.16411 10
      vertex -5.35827 8.44328 10
    endloop
  endfacet
  facet normal 0 0 1
    outer loop
      vertex -5.09939 6.16411 10
      vertex -6.37424 7.70513 10
      vertex -5.83175 5.47638 10
    endloop
  endfacet
  facet normal -0 0 1
    outer loop
      vertex -7.28969 6.84547 10
      vertex -5.83175 5.47638 10
      vertex -6.37424 7.70513 10
    endloop
  endfacet
  facet normal 0 0 1
    outer loop
      vertex -5.83175 5.47638 10
      vertex -7.28969 6.84547 10
      vertex -6.47214 4.70228 10
    endloop
  endfacet
  facet normal -0 0 1
    outer loop
      vertex -8.09017 5.87785 10
      vertex -6.47214 4.70228 10
      vertex -7.28969 6.84547 10
    endloop
  endfacet
  facet normal 0 0 1
    outer loop
      vertex -6.47214 4.70228 10
      vertex -8.09017 5.87785 10
      vertex -7.01045 3.85403 10
    endloop
  endfacet
  facet normal -0 0 1
    outer loop
      vertex -8.76307 4.81754 10
      vertex -7.01045 3.85403 10
      vertex -8.09017 5.87785 10
    endloop
  endfacet
  facet normal 0 0 1
    outer loop
      vertex -7.01045 3.85403 10
      vertex -8.76307 4.81754 10
      vertex -7.43821 2.945 10
    endloop
  endfacet
  facet normal 0 0 1
    outer loop
      vertex -7.43821 2.945 10
      vertex -9.29776 3.68124 10
      vertex -7.74866 1.98952 10
    endloop
  endfacet
  facet normal -0 0 1
    outer loop
      vertex -9.29776 3.68124 10
      vertex -7.43821 2.945 10
      vertex -8.76307 4.81754 10
    endloop
  endfacet
  facet normal -0 0 1
    outer loop
      vertex 7.43821 -2.945 10
      vertex 9.29776 -3.68124 10
      vertex 7.74866 -1.98952 10
    endloop
  endfacet
  facet normal 0 0 1
    outer loop
      vertex 9.29776 -3.68124 10
      vertex 7.43821 -2.945 10
      vertex 8.76307 -4.81754 10
    endloop
  endfacet
  facet normal -0 0 1
    outer loop
      vertex 7.01045 -3.85403 10
      vertex 8.76307 -4.81754 10
      vertex 7.43821 -2.945 10
    endloop
  endfacet
  facet normal 0 0 1
    outer loop
      vertex 8.76307 -4.81754 10
      vertex 7.01045 -3.85403 10
      vertex 8.09017 -5.87785 10
    endloop
  endfacet
  facet normal -0 0 1
    outer loop
      vertex 6.47214 -4.70228 10
      vertex 8.09017 -5.87785 10
      vertex 7.01045 -3.85403 10
    endloop
  endfacet
  facet normal 0 0 1
    outer loop
      vertex 8.09017 -5.87785 10
      vertex 6.47214 -4.70228 10
      vertex 7.28969 -6.84547 10
    endloop
  endfacet
  facet normal -0 0 1
    outer loop
      vertex 5.83175 -5.47638 10
      vertex 7.28969 -6.84547 10
      vertex 6.47214 -4.70228 10
    endloop
  endfacet
  facet normal 0 0 1
    outer loop
      vertex 7.28969 -6.84547 10
      vertex 5.83175 -5.47638 10
      vertex 6.37424 -7.70513 10
    endloop
  endfacet
  facet normal -0 0 1
    outer loop
      vertex 5.09939 -6.16411 10
      vertex 6.37424 -7.70513 10
      vertex 5.83175 -5.47638 10
    endloop
  endfacet
  facet normal 0 0 1
    outer loop
      vertex 6.37424 -7.70513 10
      vertex 5.09939 -6.16411 10
      vertex 5.35827 -8.44328 10
    endloop
  endfacet
  facet normal -0 0 1
    outer loop
      vertex 4.28661 -6.75462 10
      vertex 5.35827 -8.44328 10
      vertex 5.09939 -6.16411 10
    endloop
  endfacet
  facet normal 0 0 1
    outer loop
      vertex 4.28661 -6.75462 10
      vertex 4.25779 -9.04827 10
      vertex 5.35827 -8.44328 10
    endloop
  endfacet
  facet normal -0 0 1
    outer loop
      vertex 3.40623 -7.23862 10
      vertex 4.25779 -9.04827 10
      vertex 4.28661 -6.75462 10
    endloop
  endfacet
  facet normal 0 0 1
    outer loop
      vertex 3.40623 -7.23862 10
      vertex 3.09017 -9.51056 10
      vertex 4.25779 -9.04827 10
    endloop
  endfacet
  facet normal -0 0 1
    outer loop
      vertex 2.47214 -7.60845 10
      vertex 3.09017 -9.51056 10
      vertex 3.40623 -7.23862 10
    endloop
  endfacet
  facet normal 0 0 1
    outer loop
      vertex 2.47214 -7.60845 10
      vertex 1.87381 -9.82287 10
      vertex 3.09017 -9.51056 10
    endloop
  endfacet
  facet normal -0 0 1
    outer loop
      vertex 1.49905 -7.8583 10
      vertex 1.87381 -9.82287 10
      vertex 2.47214 -7.60845 10
    endloop
  endfacet
  facet normal 0 0 1
    outer loop
      vertex 1.49905 -7.8583 10
      vertex 0.627905 -9.98027 10
      vertex 1.87381 -9.82287 10
    endloop
  endfacet
  facet normal -0 0 1
    outer loop
      vertex 0.502324 -7.98421 10
      vertex 0.627905 -9.98027 10
      vertex 1.49905 -7.8583 10
    endloop
  endfacet
  facet normal -0 0 1
    outer loop
      vertex -0.502324 -7.98421 10
      vertex 0.627905 -9.98027 10
      vertex 0.502324 -7.98421 10
    endloop
  endfacet
  facet normal 0 0 1
    outer loop
      vertex -0.502324 -7.98421 10
      vertex -0.627905 -9.98027 10
      vertex 0.627905 -9.98027 10
    endloop
  endfacet
  facet normal 0 0 1
    outer loop
      vertex -1.49905 -7.8583 10
      vertex -0.627905 -9.98027 10
      vertex -0.502324 -7.98421 10
    endloop
  endfacet
  facet normal 0 0 1
    outer loop
      vertex -1.49905 -7.8583 10
      vertex -1.87381 -9.82287 10
      vertex -0.627905 -9.98027 10
    endloop
  endfacet
  facet normal 0 0 1
    outer loop
      vertex -2.47214 -7.60845 10
      vertex -1.87381 -9.82287 10
      vertex -1.49905 -7.8583 10
    endloop
  endfacet
  facet normal 0 0 1
    outer loop
      vertex -2.47214 -7.60845 10
      vertex -3.09017 -9.51056 10
      vertex -1.87381 -9.82287 10
    endloop
  endfacet
  facet normal 0 0 1
    outer loop
      vertex -3.40623 -7.23862 10
      vertex -3.09017 -9.51056 10
      vertex -2.47214 -7.60845 10
    endloop
  endfacet
  facet normal 0 0 1
    outer loop
      vertex -3.40623 -7.23862 10
      vertex -4.25779 -9.04827 10
      vertex -3.09017 -9.51056 10
    endloop
  endfacet
  facet normal 0 0 1
    outer loop
      vertex -4.28661 -6.75462 10
      vertex -4.25779 -9.04827 10
      vertex -3.40623 -7.23862 10
    endloop
  endfacet
  facet normal 0 0 1
    outer loop
      vertex -5.35827 -8.44328 10
      vertex -4.28661 -6.75462 10
      vertex -5.09939 -6.16411 10
    endloop
  endfacet
  facet normal 0 0 1
    outer loop
      vertex -4.28661 -6.75462 10
      vertex -5.35827 -8.44328 10
      vertex -4.25779 -9.04827 10
    endloop
  endfacet
  facet normal 0 0 1
    outer loop
      vertex -6.37424 -7.70513 10
      vertex -5.09939 -6.16411 10
      vertex -5.83175 -5.47638 10
    endloop
  endfacet
  facet normal 0 0 1
    outer loop
      vertex -5.09939 -6.16411 10
      vertex -6.37424 -7.70513 10
      vertex -5.35827 -8.44328 10
    endloop
  endfacet
  facet normal 0 0 1
    outer loop
      vertex -7.28969 -6.84547 10
      vertex -5.83175 -5.47638 10
      vertex -6.47214 -4.70228 10
    endloop
  endfacet
  facet normal 0 0 1
    outer loop
      vertex -8.09017 -5.87785 10
      vertex -6.47214 -4.70228 10
      vertex -7.01045 -3.85403 10
    endloop
  endfacet
  facet normal 0 0 1
    outer loop
      vertex -5.83175 -5.47638 10
      vertex -7.28969 -6.84547 10
      vertex -6.37424 -7.70513 10
    endloop
  endfacet
  facet normal 0 0 1
    outer loop
      vertex -8.76307 -4.81754 10
      vertex -7.01045 -3.85403 10
      vertex -7.43821 -2.945 10
    endloop
  endfacet
  facet normal 0 0 1
    outer loop
      vertex -9.29776 -3.68124 10
      vertex -7.43821 -2.945 10
      vertex -7.74866 -1.98952 10
    endloop
  endfacet
  facet normal 0 0 1
    outer loop
      vertex -9.68583 -2.4869 10
      vertex -7.74866 -1.98952 10
      vertex -7.93692 -1.00267 10
    endloop
  endfacet
  facet normal 0 0 1
    outer loop
      vertex -6.47214 -4.70228 10
      vertex -8.09017 -5.87785 10
      vertex -7.28969 -6.84547 10
    endloop
  endfacet
  facet normal 0 0 1
    outer loop
      vertex -9.92115 -1.25333 10
      vertex -7.93692 -1.00267 10
      vertex -8 0 10
    endloop
  endfacet
  facet normal -0 0 1
    outer loop
      vertex -9.68583 2.4869 10
      vertex -7.74866 1.98952 10
      vertex -9.29776 3.68124 10
    endloop
  endfacet
  facet normal 0 0 1
    outer loop
      vertex -7.74866 1.98952 10
      vertex -9.68583 2.4869 10
      vertex -7.93692 1.00267 10
    endloop
  endfacet
  facet normal 0 0 1
    outer loop
      vertex -7.01045 -3.85403 10
      vertex -8.76307 -4.81754 10
      vertex -8.09017 -5.87785 10
    endloop
  endfacet
  facet normal -0 0 1
    outer loop
      vertex -9.92115 1.25333 10
      vertex -7.93692 1.00267 10
      vertex -9.68583 2.4869 10
    endloop
  endfacet
  facet normal 0 0 1
    outer loop
      vertex -7.43821 -2.945 10
      vertex -9.29776 -3.68124 10
      vertex -8.76307 -4.81754 10
    endloop
  endfacet
  facet normal 0 0 1
    outer loop
      vertex -7.93692 1.00267 10
      vertex -9.92115 1.25333 10
      vertex -8 0 10
    endloop
  endfacet
  facet normal 0 0 1
    outer loop
      vertex -7.74866 -1.98952 10
      vertex -9.68583 -2.4869 10
      vertex -9.29776 -3.68124 10
    endloop
  endfacet
  facet normal 0 0 1
    outer loop
      vertex -10 0 10
      vertex -8 0 10
      vertex -9.92115 1.25333 10
    endloop
  endfacet
  facet normal 0 0 1
    outer loop
      vertex -7.93692 -1.00267 10
      vertex -9.92115 -1.25333 10
      vertex -9.68583 -2.4869 10
    endloop
  endfacet
  facet normal 0 0 1
    outer loop
      vertex -8 0 10
      vertex -10 0 10
      vertex -9.92115 -1.25333 10
    endloop
  endfacet
  facet normal -0.982287 0.187381 0
    outer loop
      vertex -9.92115 1.25333 -10
      vertex -9.68583 2.4869 10
      vertex -9.68583 2.4869 -10
    endloop
  endfacet
  facet normal -0.982287 0.187381 0
    outer loop
      vertex -9.68583 2.4869 10
      vertex -9.92115 1.25333 -10
      vertex -9.92115 1.25333 10
    endloop
  endfacet
  facet normal -0.587786 0.809017 0
    outer loop
      vertex -5.35827 8.44328 -10
      vertex -6.37424 7.70513 10
      vertex -5.35827 8.44328 10
    endloop
  endfacet
  facet normal -0.587786 0.809017 0
    outer loop
      vertex -6.37424 7.70513 10
      vertex -5.35827 8.44328 -10
      vertex -6.37424 7.70513 -10
    endloop
  endfacet
  facet normal -0.24869 0.968583 0
    outer loop
      vertex -1.87381 9.82287 -10
      vertex -3.09017 9.51056 10
      vertex -1.87381 9.82287 10
    endloop
  endfacet
  facet normal -0.24869 0.968583 0
    outer loop
      vertex -3.09017 9.51056 10
      vertex -1.87381 9.82287 -10
      vertex -3.09017 9.51056 -10
    endloop
  endfacet
  facet normal 0.481754 -0.876307 0
    outer loop
      vertex 4.25779 -9.04827 -10
      vertex 5.35827 -8.44328 10
      vertex 4.25779 -9.04827 10
    endloop
  endfacet
  facet normal 0.481754 -0.876307 0
    outer loop
      vertex 5.35827 -8.44328 10
      vertex 4.25779 -9.04827 -10
      vertex 5.35827 -8.44328 -10
    endloop
  endfacet
  facet normal 0.770513 -0.637424 0
    outer loop
      vertex 7.28969 -6.84547 10
      vertex 8.09017 -5.87785 -10
      vertex 8.09017 -5.87785 10
    endloop
  endfacet
  facet normal 0.770513 -0.637424 0
    outer loop
      vertex 8.09017 -5.87785 -10
      vertex 7.28969 -6.84547 10
      vertex 7.28969 -6.84547 -10
    endloop
  endfacet
  facet normal 0.844328 -0.535826 0
    outer loop
      vertex 8.09017 -5.87785 10
      vertex 8.76307 -4.81754 -10
      vertex 8.76307 -4.81754 10
    endloop
  endfacet
  facet normal 0.844328 -0.535826 0
    outer loop
      vertex 8.76307 -4.81754 -10
      vertex 8.09017 -5.87785 10
      vertex 8.09017 -5.87785 -10
    endloop
  endfacet
  facet normal -0.368125 -0.929776 0
    outer loop
      vertex -4.25779 -9.04827 -10
      vertex -3.09017 -9.51056 10
      vertex -4.25779 -9.04827 10
    endloop
  endfacet
  facet normal -0.368125 -0.929776 -0
    outer loop
      vertex -3.09017 -9.51056 10
      vertex -4.25779 -9.04827 -10
      vertex -3.09017 -9.51056 -10
    endloop
  endfacet
  facet normal -0.770513 -0.637424 0
    outer loop
      vertex -7.28969 -6.84547 -10
      vertex -8.09017 -5.87785 10
      vertex -8.09017 -5.87785 -10
    endloop
  endfacet
  facet normal -0.770513 -0.637424 0
    outer loop
      vertex -8.09017 -5.87785 10
      vertex -7.28969 -6.84547 -10
      vertex -7.28969 -6.84547 10
    endloop
  endfacet
  facet normal -0.998027 -0.062791 0
    outer loop
      vertex -9.92115 -1.25333 -10
      vertex -10 0 10
      vertex -10 0 -10
    endloop
  endfacet
  facet normal -0.998027 -0.062791 0
    outer loop
      vertex -10 0 10
      vertex -9.92115 -1.25333 -10
      vertex -9.92115 -1.25333 10
    endloop
  endfacet
  facet normal 0.684547 -0.728969 0
    outer loop
      vertex 6.37424 -7.70513 -10
      vertex 7.28969 -6.84547 10
      vertex 6.37424 -7.70513 10
    endloop
  endfacet
  facet normal 0.684547 -0.728969 0
    outer loop
      vertex 7.28969 -6.84547 10
      vertex 6.37424 -7.70513 -10
      vertex 7.28969 -6.84547 -10
    endloop
  endfacet
  facet normal 0.587786 -0.809017 0
    outer loop
      vertex 5.35827 -8.44328 -10
      vertex 6.37424 -7.70513 10
      vertex 5.35827 -8.44328 10
    endloop
  endfacet
  facet normal 0.587786 -0.809017 0
    outer loop
      vertex 6.37424 -7.70513 10
      vertex 5.35827 -8.44328 -10
      vertex 6.37424 -7.70513 -10
    endloop
  endfacet
  facet normal 0.904827 -0.425779 0
    outer loop
      vertex 8.76307 -4.81754 10
      vertex 9.29776 -3.68124 -10
      vertex 9.29776 -3.68124 10
    endloop
  endfacet
  facet normal 0.904827 -0.425779 0
    outer loop
      vertex 9.29776 -3.68124 -10
      vertex 8.76307 -4.81754 10
      vertex 8.76307 -4.81754 -10
    endloop
  endfacet
  facet normal 0 -1 0
    outer loop
      vertex -0.627905 -9.98027 -10
      vertex 0.627905 -9.98027 10
      vertex -0.627905 -9.98027 10
    endloop
  endfacet
  facet normal 0 -1 -0
    outer loop
      vertex 0.627905 -9.98027 10
      vertex -0.627905 -9.98027 -10
      vertex 0.627905 -9.98027 -10
    endloop
  endfacet
  facet normal -0.481754 -0.876307 0
    outer loop
      vertex -5.35827 -8.44328 -10
      vertex -4.25779 -9.04827 10
      vertex -5.35827 -8.44328 10
    endloop
  endfacet
  facet normal -0.481754 -0.876307 -0
    outer loop
      vertex -4.25779 -9.04827 10
      vertex -5.35827 -8.44328 -10
      vertex -4.25779 -9.04827 -10
    endloop
  endfacet
  facet normal -0.844328 -0.535826 0
    outer loop
      vertex -8.09017 -5.87785 -10
      vertex -8.76307 -4.81754 10
      vertex -8.76307 -4.81754 -10
    endloop
  endfacet
  facet normal -0.844328 -0.535826 0
    outer loop
      vertex -8.76307 -4.81754 10
      vertex -8.09017 -5.87785 -10
      vertex -8.09017 -5.87785 10
    endloop
  endfacet
  facet normal -0.904827 -0.425779 0
    outer loop
      vertex -8.76307 -4.81754 -10
      vertex -9.29776 -3.68124 10
      vertex -9.29776 -3.68124 -10
    endloop
  endfacet
  facet normal -0.904827 -0.425779 0
    outer loop
      vertex -9.29776 -3.68124 10
      vertex -8.76307 -4.81754 -10
      vertex -8.76307 -4.81754 10
    endloop
  endfacet
  facet normal 0 0 -1
    outer loop
      vertex 8 0 -10
      vertex 10 0 -10
      vertex 9.92115 -1.25333 -10
    endloop
  endfacet
  facet normal 0 0 -1
    outer loop
      vertex 7.93692 -1.00267 -10
      vertex 9.92115 -1.25333 -10
      vertex 9.68583 -2.4869 -10
    endloop
  endfacet
  facet normal 0 0 -1
    outer loop
      vertex 10 0 -10
      vertex 8 0 -10
      vertex 9.92115 1.25333 -10
    endloop
  endfacet
  facet normal 0 0 -1
    outer loop
      vertex 7.74866 -1.98952 -10
      vertex 9.68583 -2.4869 -10
      vertex 9.29776 -3.68124 -10
    endloop
  endfacet
  facet normal 0 0 -1
    outer loop
      vertex 7.93692 1.00267 -10
      vertex 9.92115 1.25333 -10
      vertex 8 0 -10
    endloop
  endfacet
  facet normal 0 0 -1
    outer loop
      vertex 7.43821 -2.945 -10
      vertex 9.29776 -3.68124 -10
      vertex 8.76307 -4.81754 -10
    endloop
  endfacet
  facet normal -0 0 -1
    outer loop
      vertex 9.92115 1.25333 -10
      vertex 7.93692 1.00267 -10
      vertex 9.68583 2.4869 -10
    endloop
  endfacet
  facet normal 0 0 -1
    outer loop
      vertex 7.01045 -3.85403 -10
      vertex 8.76307 -4.81754 -10
      vertex 8.09017 -5.87785 -10
    endloop
  endfacet
  facet normal 0 0 -1
    outer loop
      vertex 7.74866 1.98952 -10
      vertex 9.68583 2.4869 -10
      vertex 7.93692 1.00267 -10
    endloop
  endfacet
  facet normal -0 0 -1
    outer loop
      vertex 9.68583 2.4869 -10
      vertex 7.74866 1.98952 -10
      vertex 9.29776 3.68124 -10
    endloop
  endfacet
  facet normal 0 0 -1
    outer loop
      vertex 9.92115 -1.25333 -10
      vertex 7.93692 -1.00267 -10
      vertex 8 0 -10
    endloop
  endfacet
  facet normal 0 0 -1
    outer loop
      vertex 9.68583 -2.4869 -10
      vertex 7.74866 -1.98952 -10
      vertex 7.93692 -1.00267 -10
    endloop
  endfacet
  facet normal 0 0 -1
    outer loop
      vertex 9.29776 -3.68124 -10
      vertex 7.43821 -2.945 -10
      vertex 7.74866 -1.98952 -10
    endloop
  endfacet
  facet normal 0 0 -1
    outer loop
      vertex 6.47214 -4.70228 -10
      vertex 8.09017 -5.87785 -10
      vertex 7.28969 -6.84547 -10
    endloop
  endfacet
  facet normal 0 0 -1
    outer loop
      vertex 8.76307 -4.81754 -10
      vertex 7.01045 -3.85403 -10
      vertex 7.43821 -2.945 -10
    endloop
  endfacet
  facet normal 0 0 -1
    outer loop
      vertex 8.09017 -5.87785 -10
      vertex 6.47214 -4.70228 -10
      vertex 7.01045 -3.85403 -10
    endloop
  endfacet
  facet normal 0 0 -1
    outer loop
      vertex 5.83175 -5.47638 -10
      vertex 7.28969 -6.84547 -10
      vertex 6.37424 -7.70513 -10
    endloop
  endfacet
  facet normal 0 0 -1
    outer loop
      vertex 7.28969 -6.84547 -10
      vertex 5.83175 -5.47638 -10
      vertex 6.47214 -4.70228 -10
    endloop
  endfacet
  facet normal 0 0 -1
    outer loop
      vertex 5.09939 -6.16411 -10
      vertex 6.37424 -7.70513 -10
      vertex 5.35827 -8.44328 -10
    endloop
  endfacet
  facet normal 0 0 -1
    outer loop
      vertex 6.37424 -7.70513 -10
      vertex 5.09939 -6.16411 -10
      vertex 5.83175 -5.47638 -10
    endloop
  endfacet
  facet normal 0 0 -1
    outer loop
      vertex 5.35827 -8.44328 -10
      vertex 4.28661 -6.75462 -10
      vertex 5.09939 -6.16411 -10
    endloop
  endfacet
  facet normal 0 0 -1
    outer loop
      vertex 4.25779 -9.04827 -10
      vertex 4.28661 -6.75462 -10
      vertex 5.35827 -8.44328 -10
    endloop
  endfacet
  facet normal 0 0 -1
    outer loop
      vertex 4.25779 -9.04827 -10
      vertex 3.40623 -7.23862 -10
      vertex 4.28661 -6.75462 -10
    endloop
  endfacet
  facet normal 0 0 -1
    outer loop
      vertex 3.09017 -9.51056 -10
      vertex 3.40623 -7.23862 -10
      vertex 4.25779 -9.04827 -10
    endloop
  endfacet
  facet normal 0 0 -1
    outer loop
      vertex 3.09017 -9.51056 -10
      vertex 2.47214 -7.60845 -10
      vertex 3.40623 -7.23862 -10
    endloop
  endfacet
  facet normal 0 0 -1
    outer loop
      vertex 1.87381 -9.82287 -10
      vertex 2.47214 -7.60845 -10
      vertex 3.09017 -9.51056 -10
    endloop
  endfacet
  facet normal 0 0 -1
    outer loop
      vertex 1.87381 -9.82287 -10
      vertex 1.49905 -7.8583 -10
      vertex 2.47214 -7.60845 -10
    endloop
  endfacet
  facet normal 0 0 -1
    outer loop
      vertex 0.627905 -9.98027 -10
      vertex 1.49905 -7.8583 -10
      vertex 1.87381 -9.82287 -10
    endloop
  endfacet
  facet normal 0 0 -1
    outer loop
      vertex 0.627905 -9.98027 -10
      vertex 0.502324 -7.98421 -10
      vertex 1.49905 -7.8583 -10
    endloop
  endfacet
  facet normal 0 0 -1
    outer loop
      vertex 0.627905 -9.98027 -10
      vertex -0.502324 -7.98421 -10
      vertex 0.502324 -7.98421 -10
    endloop
  endfacet
  facet normal 0 0 -1
    outer loop
      vertex -0.627905 -9.98027 -10
      vertex -0.502324 -7.98421 -10
      vertex 0.627905 -9.98027 -10
    endloop
  endfacet
  facet normal 0 0 -1
    outer loop
      vertex -0.627905 -9.98027 -10
      vertex -1.49905 -7.8583 -10
      vertex -0.502324 -7.98421 -10
    endloop
  endfacet
  facet normal 0 0 -1
    outer loop
      vertex -1.87381 -9.82287 -10
      vertex -1.49905 -7.8583 -10
      vertex -0.627905 -9.98027 -10
    endloop
  endfacet
  facet normal 0 0 -1
    outer loop
      vertex -1.87381 -9.82287 -10
      vertex -2.47214 -7.60845 -10
      vertex -1.49905 -7.8583 -10
    endloop
  endfacet
  facet normal 0 0 -1
    outer loop
      vertex -3.09017 -9.51056 -10
      vertex -2.47214 -7.60845 -10
      vertex -1.87381 -9.82287 -10
    endloop
  endfacet
  facet normal 0 0 -1
    outer loop
      vertex -3.09017 -9.51056 -10
      vertex -3.40623 -7.23862 -10
      vertex -2.47214 -7.60845 -10
    endloop
  endfacet
  facet normal 0 0 -1
    outer loop
      vertex -4.25779 -9.04827 -10
      vertex -3.40623 -7.23862 -10
      vertex -3.09017 -9.51056 -10
    endloop
  endfacet
  facet normal 0 0 -1
    outer loop
      vertex -4.25779 -9.04827 -10
      vertex -4.28661 -6.75462 -10
      vertex -3.40623 -7.23862 -10
    endloop
  endfacet
  facet normal 0 0 -1
    outer loop
      vertex -5.35827 -8.44328 -10
      vertex -4.28661 -6.75462 -10
      vertex -4.25779 -9.04827 -10
    endloop
  endfacet
  facet normal -0 0 -1
    outer loop
      vertex -4.28661 -6.75462 -10
      vertex -5.35827 -8.44328 -10
      vertex -5.09939 -6.16411 -10
    endloop
  endfacet
  facet normal 0 0 -1
    outer loop
      vertex -6.37424 -7.70513 -10
      vertex -5.09939 -6.16411 -10
      vertex -5.35827 -8.44328 -10
    endloop
  endfacet
  facet normal -0 0 -1
    outer loop
      vertex -5.09939 -6.16411 -10
      vertex -6.37424 -7.70513 -10
      vertex -5.83175 -5.47638 -10
    endloop
  endfacet
  facet normal 0 0 -1
    outer loop
      vertex -7.28969 -6.84547 -10
      vertex -5.83175 -5.47638 -10
      vertex -6.37424 -7.70513 -10
    endloop
  endfacet
  facet normal -0 0 -1
    outer loop
      vertex -5.83175 -5.47638 -10
      vertex -7.28969 -6.84547 -10
      vertex -6.47214 -4.70228 -10
    endloop
  endfacet
  facet normal 0 0 -1
    outer loop
      vertex -8.09017 -5.87785 -10
      vertex -6.47214 -4.70228 -10
      vertex -7.28969 -6.84547 -10
    endloop
  endfacet
  facet normal -0 0 -1
    outer loop
      vertex -6.47214 -4.70228 -10
      vertex -8.09017 -5.87785 -10
      vertex -7.01045 -3.85403 -10
    endloop
  endfacet
  facet normal 0 0 -1
    outer loop
      vertex -8.76307 -4.81754 -10
      vertex -7.01045 -3.85403 -10
      vertex -8.09017 -5.87785 -10
    endloop
  endfacet
  facet normal -0 0 -1
    outer loop
      vertex -7.01045 -3.85403 -10
      vertex -8.76307 -4.81754 -10
      vertex -7.43821 -2.945 -10
    endloop
  endfacet
  facet normal -0 0 -1
    outer loop
      vertex -7.43821 -2.945 -10
      vertex -9.29776 -3.68124 -10
      vertex -7.74866 -1.98952 -10
    endloop
  endfacet
  facet normal 0 0 -1
    outer loop
      vertex -9.29776 -3.68124 -10
      vertex -7.43821 -2.945 -10
      vertex -8.76307 -4.81754 -10
    endloop
  endfacet
  facet normal 0 0 -1
    outer loop
      vertex 7.43821 2.945 -10
      vertex 9.29776 3.68124 -10
      vertex 7.74866 1.98952 -10
    endloop
  endfacet
  facet normal -0 0 -1
    outer loop
      vertex 9.29776 3.68124 -10
      vertex 7.43821 2.945 -10
      vertex 8.76307 4.81754 -10
    endloop
  endfacet
  facet normal 0 0 -1
    outer loop
      vertex 7.01045 3.85403 -10
      vertex 8.76307 4.81754 -10
      vertex 7.43821 2.945 -10
    endloop
  endfacet
  facet normal -0 0 -1
    outer loop
      vertex 8.76307 4.81754 -10
      vertex 7.01045 3.85403 -10
      vertex 8.09017 5.87785 -10
    endloop
  endfacet
  facet normal 0 0 -1
    outer loop
      vertex 6.47214 4.70228 -10
      vertex 8.09017 5.87785 -10
      vertex 7.01045 3.85403 -10
    endloop
  endfacet
  facet normal -0 0 -1
    outer loop
      vertex 8.09017 5.87785 -10
      vertex 6.47214 4.70228 -10
      vertex 7.28969 6.84547 -10
    endloop
  endfacet
  facet normal 0 0 -1
    outer loop
      vertex 5.83175 5.47638 -10
      vertex 7.28969 6.84547 -10
      vertex 6.47214 4.70228 -10
    endloop
  endfacet
  facet normal -0 0 -1
    outer loop
      vertex 7.28969 6.84547 -10
      vertex 5.83175 5.47638 -10
      vertex 6.37424 7.70513 -10
    endloop
  endfacet
  facet normal 0 0 -1
    outer loop
      vertex 5.09939 6.16411 -10
      vertex 6.37424 7.70513 -10
      vertex 5.83175 5.47638 -10
    endloop
  endfacet
  facet normal -0 0 -1
    outer loop
      vertex 6.37424 7.70513 -10
      vertex 5.09939 6.16411 -10
      vertex 5.35827 8.44328 -10
    endloop
  endfacet
  facet normal 0 0 -1
    outer loop
      vertex 4.28661 6.75462 -10
      vertex 5.35827 8.44328 -10
      vertex 5.09939 6.16411 -10
    endloop
  endfacet
  facet normal 0 0 -1
    outer loop
      vertex 4.28661 6.75462 -10
      vertex 4.25779 9.04827 -10
      vertex 5.35827 8.44328 -10
    endloop
  endfacet
  facet normal 0 0 -1
    outer loop
      vertex 3.40623 7.23862 -10
      vertex 4.25779 9.04827 -10
      vertex 4.28661 6.75462 -10
    endloop
  endfacet
  facet normal 0 0 -1
    outer loop
      vertex 3.40623 7.23862 -10
      vertex 3.09017 9.51056 -10
      vertex 4.25779 9.04827 -10
    endloop
  endfacet
  facet normal 0 0 -1
    outer loop
      vertex 2.47214 7.60845 -10
      vertex 3.09017 9.51056 -10
      vertex 3.40623 7.23862 -10
    endloop
  endfacet
  facet normal 0 0 -1
    outer loop
      vertex 2.47214 7.60845 -10
      vertex 1.87381 9.82287 -10
      vertex 3.09017 9.51056 -10
    endloop
  endfacet
  facet normal 0 0 -1
    outer loop
      vertex 1.49905 7.8583 -10
      vertex 1.87381 9.82287 -10
      vertex 2.47214 7.60845 -10
    endloop
  endfacet
  facet normal 0 0 -1
    outer loop
      vertex 1.49905 7.8583 -10
      vertex 0.627905 9.98027 -10
      vertex 1.87381 9.82287 -10
    endloop
  endfacet
  facet normal 0 0 -1
    outer loop
      vertex 0.502324 7.98421 -10
      vertex 0.627905 9.98027 -10
      vertex 1.49905 7.8583 -10
    endloop
  endfacet
  facet normal 0 0 -1
    outer loop
      vertex -0.502324 7.98421 -10
      vertex 0.627905 9.98027 -10
      vertex 0.502324 7.98421 -10
    endloop
  endfacet
  facet normal 0 0 -1
    outer loop
      vertex -0.502324 7.98421 -10
      vertex -0.627905 9.98027 -10
      vertex 0.627905 9.98027 -10
    endloop
  endfacet
  facet normal 0 0 -1
    outer loop
      vertex -1.49905 7.8583 -10
      vertex -0.627905 9.98027 -10
      vertex -0.502324 7.98421 -10
    endloop
  endfacet
  facet normal 0 0 -1
    outer loop
      vertex -1.49905 7.8583 -10
      vertex -1.87381 9.82287 -10
      vertex -0.627905 9.98027 -10
    endloop
  endfacet
  facet normal 0 0 -1
    outer loop
      vertex -2.47214 7.60845 -10
      vertex -1.87381 9.82287 -10
      vertex -1.49905 7.8583 -10
    endloop
  endfacet
  facet normal 0 0 -1
    outer loop
      vertex -2.47214 7.60845 -10
      vertex -3.09017 9.51056 -10
      vertex -1.87381 9.82287 -10
    endloop
  endfacet
  facet normal 0 0 -1
    outer loop
      vertex -3.40623 7.23862 -10
      vertex -3.09017 9.51056 -10
      vertex -2.47214 7.60845 -10
    endloop
  endfacet
  facet normal 0 0 -1
    outer loop
      vertex -3.40623 7.23862 -10
      vertex -4.25779 9.04827 -10
      vertex -3.09017 9.51056 -10
    endloop
  endfacet
  facet normal 0 0 -1
    outer loop
      vertex -4.28661 6.75462 -10
      vertex -4.25779 9.04827 -10
      vertex -3.40623 7.23862 -10
    endloop
  endfacet
  facet normal 0 0 -1
    outer loop
      vertex -5.35827 8.44328 -10
      vertex -4.28661 6.75462 -10
      vertex -5.09939 6.16411 -10
    endloop
  endfacet
  facet normal 0 0 -1
    outer loop
      vertex -4.28661 6.75462 -10
      vertex -5.35827 8.44328 -10
      vertex -4.25779 9.04827 -10
    endloop
  endfacet
  facet normal 0 0 -1
    outer loop
      vertex -6.37424 7.70513 -10
      vertex -5.09939 6.16411 -10
      vertex -5.83175 5.47638 -10
    endloop
  endfacet
  facet normal 0 0 -1
    outer loop
      vertex -5.09939 6.16411 -10
      vertex -6.37424 7.70513 -10
      vertex -5.35827 8.44328 -10
    endloop
  endfacet
  facet normal 0 0 -1
    outer loop
      vertex -7.28969 6.84547 -10
      vertex -5.83175 5.47638 -10
      vertex -6.47214 4.70228 -10
    endloop
  endfacet
  facet normal 0 0 -1
    outer loop
      vertex -8.09017 5.87785 -10
      vertex -6.47214 4.70228 -10
      vertex -7.01045 3.85403 -10
    endloop
  endfacet
  facet normal 0 0 -1
    outer loop
      vertex -5.83175 5.47638 -10
      vertex -7.28969 6.84547 -10
      vertex -6.37424 7.70513 -10
    endloop
  endfacet
  facet normal 0 0 -1
    outer loop
      vertex -8.76307 4.81754 -10
      vertex -7.01045 3.85403 -10
      vertex -7.43821 2.945 -10
    endloop
  endfacet
  facet normal 0 0 -1
    outer loop
      vertex -9.29776 3.68124 -10
      vertex -7.43821 2.945 -10
      vertex -7.74866 1.98952 -10
    endloop
  endfacet
  facet normal 0 0 -1
    outer loop
      vertex -9.68583 2.4869 -10
      vertex -7.74866 1.98952 -10
      vertex -7.93692 1.00267 -10
    endloop
  endfacet
  facet normal 0 0 -1
    outer loop
      vertex -6.47214 4.70228 -10
      vertex -8.09017 5.87785 -10
      vertex -7.28969 6.84547 -10
    endloop
  endfacet
  facet normal 0 0 -1
    outer loop
      vertex -9.92115 1.25333 -10
      vertex -7.93692 1.00267 -10
      vertex -8 0 -10
    endloop
  endfacet
  facet normal 0 0 -1
    outer loop
      vertex -9.68583 -2.4869 -10
      vertex -7.74866 -1.98952 -10
      vertex -9.29776 -3.68124 -10
    endloop
  endfacet
  facet normal -0 0 -1
    outer loop
      vertex -7.74866 -1.98952 -10
      vertex -9.68583 -2.4869 -10
      vertex -7.93692 -1.00267 -10
    endloop
  endfacet
  facet normal 0 0 -1
    outer loop
      vertex -7.01045 3.85403 -10
      vertex -8.76307 4.81754 -10
      vertex -8.09017 5.87785 -10
    endloop
  endfacet
  facet normal 0 0 -1
    outer loop
      vertex -9.92115 -1.25333 -10
      vertex -7.93692 -1.00267 -10
      vertex -9.68583 -2.4869 -10
    endloop
  endfacet
  facet normal 0 0 -1
    outer loop
      vertex -7.43821 2.945 -10
      vertex -9.29776 3.68124 -10
      vertex -8.76307 4.81754 -10
    endloop
  endfacet
  facet normal -0 0 -1
    outer loop
      vertex -7.93692 -1.00267 -10
      vertex -9.92115 -1.25333 -10
      vertex -8 0 -10
    endloop
  endfacet
  facet normal 0 0 -1
    outer loop
      vertex -7.74866 1.98952 -10
      vertex -9.68583 2.4869 -10
      vertex -9.29776 3.68124 -10
    endloop
  endfacet
  facet normal 0 0 -1
    outer loop
      vertex -10 0 -10
      vertex -8 0 -10
      vertex -9.92115 -1.25333 -10
    endloop
  endfacet
  facet normal 0 0 -1
    outer loop
      vertex -7.93692 1.00267 -10
      vertex -9.92115 1.25333 -10
      vertex -9.68583 2.4869 -10
    endloop
  endfacet
  facet normal 0 0 -1
    outer loop
      vertex -8 0 -10
      vertex -10 0 -10
      vertex -9.92115 1.25333 -10
    endloop
  endfacet
  facet normal -0.982287 -0.187381 0
    outer loop
      vertex -9.68583 -2.4869 -10
      vertex -9.92115 -1.25333 10
      vertex -9.92115 -1.25333 -10
    endloop
  endfacet
  facet normal -0.982287 -0.187381 0
    outer loop
      vertex -9.92115 -1.25333 10
      vertex -9.68583 -2.4869 -10
      vertex -9.68583 -2.4869 10
    endloop
  endfacet
  facet normal -0.684547 -0.728969 0
    outer loop
      vertex -7.28969 -6.84547 -10
      vertex -6.37424 -7.70513 10
      vertex -7.28969 -6.84547 10
    endloop
  endfacet
  facet normal -0.684547 -0.728969 -0
    outer loop
      vertex -6.37424 -7.70513 10
      vertex -7.28969 -6.84547 -10
      vertex -6.37424 -7.70513 -10
    endloop
  endfacet
  facet normal -0.587786 -0.809017 0
    outer loop
      vertex -6.37424 -7.70513 -10
      vertex -5.35827 -8.44328 10
      vertex -6.37424 -7.70513 10
    endloop
  endfacet
  facet normal -0.587786 -0.809017 -0
    outer loop
      vertex -5.35827 -8.44328 10
      vertex -6.37424 -7.70513 -10
      vertex -5.35827 -8.44328 -10
    endloop
  endfacet
  facet normal -0.998027 -0.0627908 0
    outer loop
      vertex 8 0 -10
      vertex 7.93692 1.00267 10
      vertex 7.93692 1.00267 -10
    endloop
  endfacet
  facet normal -0.998027 -0.0627908 0
    outer loop
      vertex 7.93692 1.00267 10
      vertex 8 0 -10
      vertex 8 0 10
    endloop
  endfacet
  facet normal 0.998027 -0.0627908 0
    outer loop
      vertex -8 0 10
      vertex -7.93692 1.00267 -10
      vertex -7.93692 1.00267 10
    endloop
  endfacet
  facet normal 0.998027 -0.0627908 0
    outer loop
      vertex -7.93692 1.00267 -10
      vertex -8 0 10
      vertex -8 0 -10
    endloop
  endfacet
  facet normal 0 -1 0
    outer loop
      vertex -0.502324 7.98421 -10
      vertex 0.502324 7.98421 10
      vertex -0.502324 7.98421 10
    endloop
  endfacet
  facet normal 0 -1 -0
    outer loop
      vertex 0.502324 7.98421 10
      vertex -0.502324 7.98421 -10
      vertex 0.502324 7.98421 -10
    endloop
  endfacet
  facet normal -0.684547 -0.728969 0
    outer loop
      vertex 5.09939 6.16411 -10
      vertex 5.83175 5.47638 10
      vertex 5.09939 6.16411 10
    endloop
  endfacet
  facet normal -0.684547 -0.728969 -0
    outer loop
      vertex 5.83175 5.47638 10
      vertex 5.09939 6.16411 -10
      vertex 5.83175 5.47638 -10
    endloop
  endfacet
  facet normal 0.684547 -0.728969 0
    outer loop
      vertex -5.83175 5.47638 -10
      vertex -5.09939 6.16411 10
      vertex -5.83175 5.47638 10
    endloop
  endfacet
  facet normal 0.684547 -0.728969 0
    outer loop
      vertex -5.09939 6.16411 10
      vertex -5.83175 5.47638 -10
      vertex -5.09939 6.16411 -10
    endloop
  endfacet
  facet normal 0.368125 -0.929776 0
    outer loop
      vertex -3.40623 7.23862 -10
      vertex -2.47214 7.60845 10
      vertex -3.40623 7.23862 10
    endloop
  endfacet
  facet normal 0.368125 -0.929776 0
    outer loop
      vertex -2.47214 7.60845 10
      vertex -3.40623 7.23862 -10
      vertex -2.47214 7.60845 -10
    endloop
  endfacet
  facet normal -0.904827 -0.425779 0
    outer loop
      vertex 7.43821 2.945 -10
      vertex 7.01045 3.85403 10
      vertex 7.01045 3.85403 -10
    endloop
  endfacet
  facet normal -0.904827 -0.425779 0
    outer loop
      vertex 7.01045 3.85403 10
      vertex 7.43821 2.945 -10
      vertex 7.43821 2.945 10
    endloop
  endfacet
  facet normal -0.368125 -0.929776 0
    outer loop
      vertex 2.47214 7.60845 -10
      vertex 3.40623 7.23862 10
      vertex 2.47214 7.60845 10
    endloop
  endfacet
  facet normal -0.368125 -0.929776 -0
    outer loop
      vertex 3.40623 7.23862 10
      vertex 2.47214 7.60845 -10
      vertex 3.40623 7.23862 -10
    endloop
  endfacet
  facet normal -0.24869 -0.968583 0
    outer loop
      vertex 1.49905 7.8583 -10
      vertex 2.47214 7.60845 10
      vertex 1.49905 7.8583 10
    endloop
  endfacet
  facet normal -0.24869 -0.968583 -0
    outer loop
      vertex 2.47214 7.60845 10
      vertex 1.49905 7.8583 -10
      vertex 2.47214 7.60845 -10
    endloop
  endfacet
  facet normal -0.587785 -0.809017 0
    outer loop
      vertex 4.28661 6.75462 -10
      vertex 5.09939 6.16411 10
      vertex 4.28661 6.75462 10
    endloop
  endfacet
  facet normal -0.587785 -0.809017 -0
    outer loop
      vertex 5.09939 6.16411 10
      vertex 4.28661 6.75462 -10
      vertex 5.09939 6.16411 -10
    endloop
  endfacet
  facet normal 0.844328 -0.535827 0
    outer loop
      vertex -7.01045 3.85403 10
      vertex -6.47214 4.70228 -10
      vertex -6.47214 4.70228 10
    endloop
  endfacet
  facet normal 0.844328 -0.535827 0
    outer loop
      vertex -6.47214 4.70228 -10
      vertex -7.01045 3.85403 10
      vertex -7.01045 3.85403 -10
    endloop
  endfacet
  facet normal 0.770513 -0.637424 0
    outer loop
      vertex -6.47214 4.70228 10
      vertex -5.83175 5.47638 -10
      vertex -5.83175 5.47638 10
    endloop
  endfacet
  facet normal 0.770513 -0.637424 0
    outer loop
      vertex -5.83175 5.47638 -10
      vertex -6.47214 4.70228 10
      vertex -6.47214 4.70228 -10
    endloop
  endfacet
  facet normal 0.982287 -0.187382 0
    outer loop
      vertex -7.93692 1.00267 10
      vertex -7.74866 1.98952 -10
      vertex -7.74866 1.98952 10
    endloop
  endfacet
  facet normal 0.982287 -0.187382 0
    outer loop
      vertex -7.74866 1.98952 -10
      vertex -7.93692 1.00267 10
      vertex -7.93692 1.00267 -10
    endloop
  endfacet
  facet normal 0.587785 -0.809017 0
    outer loop
      vertex -5.09939 6.16411 -10
      vertex -4.28661 6.75462 10
      vertex -5.09939 6.16411 10
    endloop
  endfacet
  facet normal 0.587785 -0.809017 0
    outer loop
      vertex -4.28661 6.75462 10
      vertex -5.09939 6.16411 -10
      vertex -4.28661 6.75462 -10
    endloop
  endfacet
  facet normal 0.125333 -0.992115 0
    outer loop
      vertex -1.49905 7.8583 -10
      vertex -0.502324 7.98421 10
      vertex -1.49905 7.8583 10
    endloop
  endfacet
  facet normal 0.125333 -0.992115 0
    outer loop
      vertex -0.502324 7.98421 10
      vertex -1.49905 7.8583 -10
      vertex -0.502324 7.98421 -10
    endloop
  endfacet
  facet normal -0.770513 0.637424 0
    outer loop
      vertex 5.83175 -5.47638 -10
      vertex 6.47214 -4.70228 10
      vertex 6.47214 -4.70228 -10
    endloop
  endfacet
  facet normal -0.770513 0.637424 0
    outer loop
      vertex 6.47214 -4.70228 10
      vertex 5.83175 -5.47638 -10
      vertex 5.83175 -5.47638 10
    endloop
  endfacet
  facet normal 0.125333 0.992115 -0
    outer loop
      vertex -0.502324 -7.98421 -10
      vertex -1.49905 -7.8583 10
      vertex -0.502324 -7.98421 10
    endloop
  endfacet
  facet normal 0.125333 0.992115 0
    outer loop
      vertex -1.49905 -7.8583 10
      vertex -0.502324 -7.98421 -10
      vertex -1.49905 -7.8583 -10
    endloop
  endfacet
  facet normal -0.125333 0.992115 0
    outer loop
      vertex 1.49905 -7.8583 -10
      vertex 0.502324 -7.98421 10
      vertex 1.49905 -7.8583 10
    endloop
  endfacet
  facet normal -0.125333 0.992115 0
    outer loop
      vertex 0.502324 -7.98421 10
      vertex 1.49905 -7.8583 -10
      vertex 0.502324 -7.98421 -10
    endloop
  endfacet
  facet normal -0.951057 -0.309017 0
    outer loop
      vertex 7.74866 1.98952 -10
      vertex 7.43821 2.945 10
      vertex 7.43821 2.945 -10
    endloop
  endfacet
  facet normal -0.951057 -0.309017 0
    outer loop
      vertex 7.43821 2.945 10
      vertex 7.74866 1.98952 -10
      vertex 7.74866 1.98952 10
    endloop
  endfacet
  facet normal -0.982287 -0.187382 0
    outer loop
      vertex 7.93692 1.00267 -10
      vertex 7.74866 1.98952 10
      vertex 7.74866 1.98952 -10
    endloop
  endfacet
  facet normal -0.982287 -0.187382 0
    outer loop
      vertex 7.74866 1.98952 10
      vertex 7.93692 1.00267 -10
      vertex 7.93692 1.00267 10
    endloop
  endfacet
  facet normal -0.770513 -0.637424 0
    outer loop
      vertex 6.47214 4.70228 -10
      vertex 5.83175 5.47638 10
      vertex 5.83175 5.47638 -10
    endloop
  endfacet
  facet normal -0.770513 -0.637424 0
    outer loop
      vertex 5.83175 5.47638 10
      vertex 6.47214 4.70228 -10
      vertex 6.47214 4.70228 10
    endloop
  endfacet
  facet normal -0.844328 -0.535827 0
    outer loop
      vertex 7.01045 3.85403 -10
      vertex 6.47214 4.70228 10
      vertex 6.47214 4.70228 -10
    endloop
  endfacet
  facet normal -0.844328 -0.535827 0
    outer loop
      vertex 6.47214 4.70228 10
      vertex 7.01045 3.85403 -10
      vertex 7.01045 3.85403 10
    endloop
  endfacet
  facet normal -0.125333 -0.992115 0
    outer loop
      vertex 0.502324 7.98421 -10
      vertex 1.49905 7.8583 10
      vertex 0.502324 7.98421 10
    endloop
  endfacet
  facet normal -0.125333 -0.992115 -0
    outer loop
      vertex 1.49905 7.8583 10
      vertex 0.502324 7.98421 -10
      vertex 1.49905 7.8583 -10
    endloop
  endfacet
  facet normal -0.481754 -0.876306 0
    outer loop
      vertex 3.40623 7.23862 -10
      vertex 4.28661 6.75462 10
      vertex 3.40623 7.23862 10
    endloop
  endfacet
  facet normal -0.481754 -0.876306 -0
    outer loop
      vertex 4.28661 6.75462 10
      vertex 3.40623 7.23862 -10
      vertex 4.28661 6.75462 -10
    endloop
  endfacet
  facet normal 0.904827 -0.425779 0
    outer loop
      vertex -7.43821 2.945 10
      vertex -7.01045 3.85403 -10
      vertex -7.01045 3.85403 10
    endloop
  endfacet
  facet normal 0.904827 -0.425779 0
    outer loop
      vertex -7.01045 3.85403 -10
      vertex -7.43821 2.945 10
      vertex -7.43821 2.945 -10
    endloop
  endfacet
  facet normal 0.951057 -0.309017 0
    outer loop
      vertex -7.74866 1.98952 10
      vertex -7.43821 2.945 -10
      vertex -7.43821 2.945 10
    endloop
  endfacet
  facet normal 0.951057 -0.309017 0
    outer loop
      vertex -7.43821 2.945 -10
      vertex -7.74866 1.98952 10
      vertex -7.74866 1.98952 -10
    endloop
  endfacet
  facet normal 0.481754 -0.876306 0
    outer loop
      vertex -4.28661 6.75462 -10
      vertex -3.40623 7.23862 10
      vertex -4.28661 6.75462 10
    endloop
  endfacet
  facet normal 0.481754 -0.876306 0
    outer loop
      vertex -3.40623 7.23862 10
      vertex -4.28661 6.75462 -10
      vertex -3.40623 7.23862 -10
    endloop
  endfacet
  facet normal 0.24869 -0.968583 0
    outer loop
      vertex -2.47214 7.60845 -10
      vertex -1.49905 7.8583 10
      vertex -2.47214 7.60845 10
    endloop
  endfacet
  facet normal 0.24869 -0.968583 0
    outer loop
      vertex -1.49905 7.8583 10
      vertex -2.47214 7.60845 -10
      vertex -1.49905 7.8583 -10
    endloop
  endfacet
  facet normal -0.998027 0.0627908 0
    outer loop
      vertex 7.93692 -1.00267 -10
      vertex 8 0 10
      vertex 8 0 -10
    endloop
  endfacet
  facet normal -0.998027 0.0627908 0
    outer loop
      vertex 8 0 10
      vertex 7.93692 -1.00267 -10
      vertex 7.93692 -1.00267 10
    endloop
  endfacet
  facet normal 0.998027 0.0627908 0
    outer loop
      vertex -7.93692 -1.00267 10
      vertex -8 0 -10
      vertex -8 0 10
    endloop
  endfacet
  facet normal 0.998027 0.0627908 0
    outer loop
      vertex -8 0 -10
      vertex -7.93692 -1.00267 10
      vertex -7.93692 -1.00267 -10
    endloop
  endfacet
  facet normal 0.951057 0.309017 0
    outer loop
      vertex -7.43821 -2.945 10
      vertex -7.74866 -1.98952 -10
      vertex -7.74866 -1.98952 10
    endloop
  endfacet
  facet normal 0.951057 0.309017 0
    outer loop
      vertex -7.74866 -1.98952 -10
      vertex -7.43821 -2.945 10
      vertex -7.43821 -2.945 -10
    endloop
  endfacet
  facet normal -0.368125 0.929776 0
    outer loop
      vertex 3.40623 -7.23862 -10
      vertex 2.47214 -7.60845 10
      vertex 3.40623 -7.23862 10
    endloop
  endfacet
  facet normal -0.368125 0.929776 0
    outer loop
      vertex 2.47214 -7.60845 10
      vertex 3.40623 -7.23862 -10
      vertex 2.47214 -7.60845 -10
    endloop
  endfacet
  facet normal -0.24869 0.968583 0
    outer loop
      vertex 2.47214 -7.60845 -10
      vertex 1.49905 -7.8583 10
      vertex 2.47214 -7.60845 10
    endloop
  endfacet
  facet normal -0.24869 0.968583 0
    outer loop
      vertex 1.49905 -7.8583 10
      vertex 2.47214 -7.60845 -10
      vertex 1.49905 -7.8583 -10
    endloop
  endfacet
  facet normal -0.951057 0.309017 0
    outer loop
      vertex 7.43821 -2.945 -10
      vertex 7.74866 -1.98952 10
      vertex 7.74866 -1.98952 -10
    endloop
  endfacet
  facet normal -0.951057 0.309017 0
    outer loop
      vertex 7.74866 -1.98952 10
      vertex 7.43821 -2.945 -10
      vertex 7.43821 -2.945 10
    endloop
  endfacet
  facet normal -0.904827 0.425779 0
    outer loop
      vertex 7.01045 -3.85403 -10
      vertex 7.43821 -2.945 10
      vertex 7.43821 -2.945 -10
    endloop
  endfacet
  facet normal -0.904827 0.425779 0
    outer loop
      vertex 7.43821 -2.945 10
      vertex 7.01045 -3.85403 -10
      vertex 7.01045 -3.85403 10
    endloop
  endfacet
  facet normal -0.844328 0.535827 0
    outer loop
      vertex 6.47214 -4.70228 -10
      vertex 7.01045 -3.85403 10
      vertex 7.01045 -3.85403 -10
    endloop
  endfacet
  facet normal -0.844328 0.535827 0
    outer loop
      vertex 7.01045 -3.85403 10
      vertex 6.47214 -4.70228 -10
      vertex 6.47214 -4.70228 10
    endloop
  endfacet
  facet normal 0.368125 0.929776 -0
    outer loop
      vertex -2.47214 -7.60845 -10
      vertex -3.40623 -7.23862 10
      vertex -2.47214 -7.60845 10
    endloop
  endfacet
  facet normal 0.368125 0.929776 0
    outer loop
      vertex -3.40623 -7.23862 10
      vertex -2.47214 -7.60845 -10
      vertex -3.40623 -7.23862 -10
    endloop
  endfacet
  facet normal 0.770513 0.637424 0
    outer loop
      vertex -5.83175 -5.47638 10
      vertex -6.47214 -4.70228 -10
      vertex -6.47214 -4.70228 10
    endloop
  endfacet
  facet normal 0.770513 0.637424 0
    outer loop
      vertex -6.47214 -4.70228 -10
      vertex -5.83175 -5.47638 10
      vertex -5.83175 -5.47638 -10
    endloop
  endfacet
  facet normal 0.904827 0.425779 0
    outer loop
      vertex -7.01045 -3.85403 10
      vertex -7.43821 -2.945 -10
      vertex -7.43821 -2.945 10
    endloop
  endfacet
  facet normal 0.904827 0.425779 0
    outer loop
      vertex -7.43821 -2.945 -10
      vertex -7.01045 -3.85403 10
      vertex -7.01045 -3.85403 -10
    endloop
  endfacet
  facet normal 0.982287 0.187382 0
    outer loop
      vertex -7.74866 -1.98952 10
      vertex -7.93692 -1.00267 -10
      vertex -7.93692 -1.00267 10
    endloop
  endfacet
  facet normal 0.982287 0.187382 0
    outer loop
      vertex -7.93692 -1.00267 -10
      vertex -7.74866 -1.98952 10
      vertex -7.74866 -1.98952 -10
    endloop
  endfacet
  facet normal -0.684547 0.728969 0
    outer loop
      vertex 5.83175 -5.47638 -10
      vertex 5.09939 -6.16411 10
      vertex 5.83175 -5.47638 10
    endloop
  endfacet
  facet normal -0.684547 0.728969 0
    outer loop
      vertex 5.09939 -6.16411 10
      vertex 5.83175 -5.47638 -10
      vertex 5.09939 -6.16411 -10
    endloop
  endfacet
  facet normal -0.481754 0.876306 0
    outer loop
      vertex 4.28661 -6.75462 -10
      vertex 3.40623 -7.23862 10
      vertex 4.28661 -6.75462 10
    endloop
  endfacet
  facet normal -0.481754 0.876306 0
    outer loop
      vertex 3.40623 -7.23862 10
      vertex 4.28661 -6.75462 -10
      vertex 3.40623 -7.23862 -10
    endloop
  endfacet
  facet normal -0.982287 0.187382 0
    outer loop
      vertex 7.74866 -1.98952 -10
      vertex 7.93692 -1.00267 10
      vertex 7.93692 -1.00267 -10
    endloop
  endfacet
  facet normal -0.982287 0.187382 0
    outer loop
      vertex 7.93692 -1.00267 10
      vertex 7.74866 -1.98952 -10
      vertex 7.74866 -1.98952 10
    endloop
  endfacet
  facet normal 0 1 -0
    outer loop
      vertex 0.502324 -7.98421 -10
      vertex -0.502324 -7.98421 10
      vertex 0.502324 -7.98421 10
    endloop
  endfacet
  facet normal 0 1 0
    outer loop
      vertex -0.502324 -7.98421 10
      vertex 0.502324 -7.98421 -10
      vertex -0.502324 -7.98421 -10
    endloop
  endfacet
  facet normal 0.24869 0.968583 -0
    outer loop
      vertex -1.49905 -7.8583 -10
      vertex -2.47214 -7.60845 10
      vertex -1.49905 -7.8583 10
    endloop
  endfacet
  facet normal 0.24869 0.968583 0
    outer loop
      vertex -2.47214 -7.60845 10
      vertex -1.49905 -7.8583 -10
      vertex -2.47214 -7.60845 -10
    endloop
  endfacet
  facet normal 0.684547 0.728969 -0
    outer loop
      vertex -5.09939 -6.16411 -10
      vertex -5.83175 -5.47638 10
      vertex -5.09939 -6.16411 10
    endloop
  endfacet
  facet normal 0.684547 0.728969 0
    outer loop
      vertex -5.83175 -5.47638 10
      vertex -5.09939 -6.16411 -10
      vertex -5.83175 -5.47638 -10
    endloop
  endfacet
  facet normal 0.844328 0.535827 0
    outer loop
      vertex -6.47214 -4.70228 10
      vertex -7.01045 -3.85403 -10
      vertex -7.01045 -3.85403 10
    endloop
  endfacet
  facet normal 0.844328 0.535827 0
    outer loop
      vertex -7.01045 -3.85403 -10
      vertex -6.47214 -4.70228 10
      vertex -6.47214 -4.70228 -10
    endloop
  endfacet
  facet normal -0.587785 0.809017 0
    outer loop
      vertex 5.09939 -6.16411 -10
      vertex 4.28661 -6.75462 10
      vertex 5.09939 -6.16411 10
    endloop
  endfacet
  facet normal -0.587785 0.809017 0
    outer loop
      vertex 4.28661 -6.75462 10
      vertex 5.09939 -6.16411 -10
      vertex 4.28661 -6.75462 -10
    endloop
  endfacet
  facet normal 0.481754 0.876306 -0
    outer loop
      vertex -3.40623 -7.23862 -10
      vertex -4.28661 -6.75462 10
      vertex -3.40623 -7.23862 10
    endloop
  endfacet
  facet normal 0.481754 0.876306 0
    outer loop
      vertex -4.28661 -6.75462 10
      vertex -3.40623 -7.23862 -10
      vertex -4.28661 -6.75462 -10
    endloop
  endfacet
  facet normal 0.587785 0.809017 -0
    outer loop
      vertex -4.28661 -6.75462 -10
      vertex -5.09939 -6.16411 10
      vertex -4.28661 -6.75462 10
    endloop
  endfacet
  facet normal 0.587785 0.809017 0
    outer loop
      vertex -5.09939 -6.16411 10
      vertex -4.28661 -6.75462 -10
      vertex -5.09939 -6.16411 -10
    endloop
  endfacet
endsolid OpenSCAD_Model
