solid OpenSCAD_Model
  facet normal -1 0 0
    outer loop
      vertex -50 -10 -5
      vertex -50 10 5
      vertex -50 10 -5
    endloop
  endfacet
  facet normal -1 -0 0
    outer loop
      vertex -50 10 5
      vertex -50 -10 -5
      vertex -50 -10 5
    endloop
  endfacet
  facet normal -0 0 1
    outer loop
      vertex -50 10 5
      vertex 50 -10 5
      vertex 50 10 5
    endloop
  endfacet
  facet normal 0 0 1
    outer loop
      vertex 50 -10 5
      vertex -50 10 5
      vertex -50 -10 5
    endloop
  endfacet
  facet normal 1 -0 0
    outer loop
      vertex 50 -10 5
      vertex 50 10 -5
      vertex 50 10 5
    endloop
  endfacet
  facet normal 1 0 0
    outer loop
      vertex 50 10 -5
      vertex 50 -10 5
      vertex 50 -10 -5
    endloop
  endfacet
  facet normal 0 0 -1
    outer loop
      vertex 35 -10 -5
      vertex -50 -10 -5
      vertex 35 8 -5
    endloop
  endfacet
  facet normal 0 0 -1
    outer loop
      vertex 45 8 -5
      vertex 50 -10 -5
      vertex 45 -10 -5
    endloop
  endfacet
  facet normal 0 0 -1
    outer loop
      vertex 50 -10 -5
      vertex 45 8 -5
      vertex 50 10 -5
    endloop
  endfacet
  facet normal 0 0 -1
    outer loop
      vertex 35 8 -5
      vertex 50 10 -5
      vertex 45 8 -5
    endloop
  endfacet
  facet normal 0 0 -1
    outer loop
      vertex 35 8 -5
      vertex -50 10 -5
      vertex 50 10 -5
    endloop
  endfacet
  facet normal 0 0 -1
    outer loop
      vertex -50 10 -5
      vertex 35 8 -5
      vertex -50 -10 -5
    endloop
  endfacet
  facet normal 0 -1 0
    outer loop
      vertex -50 -10 5
      vertex 35 -10 3
      vertex 50 -10 5
    endloop
  endfacet
  facet normal 0 -1 0
    outer loop
      vertex -50 -10 -5
      vertex 35 -10 3
      vertex -50 -10 5
    endloop
  endfacet
  facet normal 0 -1 -0
    outer loop
      vertex 35 -10 3
      vertex -50 -10 -5
      vertex 35 -10 -5
    endloop
  endfacet
  facet normal 0 -1 0
    outer loop
      vertex 45 -10 3
      vertex 50 -10 5
      vertex 35 -10 3
    endloop
  endfacet
  facet normal 0 -1 0
    outer loop
      vertex 50 -10 -5
      vertex 45 -10 3
      vertex 45 -10 -5
    endloop
  endfacet
  facet normal 0 -1 0
    outer loop
      vertex 45 -10 3
      vertex 50 -10 -5
      vertex 50 -10 5
    endloop
  endfacet
  facet normal 0 1 -0
    outer loop
      vertex 50 10 -5
      vertex -50 10 5
      vertex 50 10 5
    endloop
  endfacet
  facet normal 0 1 0
    outer loop
      vertex -50 10 5
      vertex 50 10 -5
      vertex -50 10 -5
    endloop
  endfacet
  facet normal 1 -0 0
    outer loop
      vertex 35 -10 3
      vertex 35 8 -5
      vertex 35 8 3
    endloop
  endfacet
  facet normal 1 0 0
    outer loop
      vertex 35 8 -5
      vertex 35 -10 3
      vertex 35 -10 -5
    endloop
  endfacet
  facet normal 0 0 -1
    outer loop
      vertex 35 -10 3
      vertex 45 8 3
      vertex 45 -10 3
    endloop
  endfacet
  facet normal -0 0 -1
    outer loop
      vertex 45 8 3
      vertex 35 -10 3
      vertex 35 8 3
    endloop
  endfacet
  facet normal -1 0 0
    outer loop
      vertex 45 -10 -5
      vertex 45 8 3
      vertex 45 8 -5
    endloop
  endfacet
  facet normal -1 -0 0
    outer loop
      vertex 45 8 3
      vertex 45 -10 -5
      vertex 45 -10 3
    endloop
  endfacet
  facet normal 0 -1 0
    outer loop
      vertex 35 8 -5
      vertex 45 8 3
      vertex 35 8 3
    endloop
  endfacet
  facet normal 0 -1 -0
    outer loop
      vertex 45 8 3
      vertex 35 8 -5
      vertex 45 8 -5
    endloop
  endfacet
endsolid OpenSCAD_Model
