solid OpenSCAD_Model
  facet normal -1 0 0
    outer loop
      vertex -10 -10 -2.5
      vertex -10 10 2.5
      vertex -10 10 -2.5
    endloop
  endfacet
  facet normal -1 -0 0
    outer loop
      vertex -10 10 2.5
      vertex -10 -10 -2.5
      vertex -10 -10 2.5
    endloop
  endfacet
  facet normal 0 0 1
    outer loop
      vertex 10 10 2.5
      vertex 6 0 2.5
      vertex 10 -10 2.5
    endloop
  endfacet
  facet normal 0 0 1
    outer loop
      vertex 10 10 2.5
      vertex 5.86889 1.24747 2.5
      vertex 6 0 2.5
    endloop
  endfacet
  facet normal 0 0 1
    outer loop
      vertex 10 10 2.5
      vertex 5.48127 2.44042 2.5
      vertex 5.86889 1.24747 2.5
    endloop
  endfacet
  facet normal 0 0 1
    outer loop
      vertex 10 10 2.5
      vertex 4.8541 3.52671 2.5
      vertex 5.48127 2.44042 2.5
    endloop
  endfacet
  facet normal 0 0 1
    outer loop
      vertex 10 10 2.5
      vertex 4.01478 4.45887 2.5
      vertex 4.8541 3.52671 2.5
    endloop
  endfacet
  facet normal 0 0 1
    outer loop
      vertex 10 10 2.5
      vertex 3 5.19615 2.5
      vertex 4.01478 4.45887 2.5
    endloop
  endfacet
  facet normal 0 0 1
    outer loop
      vertex 10 10 2.5
      vertex 1.8541 5.70634 2.5
      vertex 3 5.19615 2.5
    endloop
  endfacet
  facet normal 0 0 1
    outer loop
      vertex 10 10 2.5
      vertex 0.627171 5.96713 2.5
      vertex 1.8541 5.70634 2.5
    endloop
  endfacet
  facet normal 0 0 1
    outer loop
      vertex 10 10 2.5
      vertex -0.627171 5.96713 2.5
      vertex 0.627171 5.96713 2.5
    endloop
  endfacet
  facet normal -0 0 1
    outer loop
      vertex -10 10 2.5
      vertex -0.627171 5.96713 2.5
      vertex 10 10 2.5
    endloop
  endfacet
  facet normal 0 0 1
    outer loop
      vertex -5.86889 1.24747 2.5
      vertex -10 10 2.5
      vertex -6 0 2.5
    endloop
  endfacet
  facet normal 0 0 1
    outer loop
      vertex -5.48127 2.44042 2.5
      vertex -10 10 2.5
      vertex -5.86889 1.24747 2.5
    endloop
  endfacet
  facet normal 0 0 1
    outer loop
      vertex -4.8541 3.52671 2.5
      vertex -10 10 2.5
      vertex -5.48127 2.44042 2.5
    endloop
  endfacet
  facet normal 0 0 1
    outer loop
      vertex -4.01478 4.45887 2.5
      vertex -10 10 2.5
      vertex -4.8541 3.52671 2.5
    endloop
  endfacet
  facet normal 0 0 1
    outer loop
      vertex -3 5.19615 2.5
      vertex -10 10 2.5
      vertex -4.01478 4.45887 2.5
    endloop
  endfacet
  facet normal 0 0 1
    outer loop
      vertex -1.8541 5.70634 2.5
      vertex -10 10 2.5
      vertex -3 5.19615 2.5
    endloop
  endfacet
  facet normal 0 0 1
    outer loop
      vertex -0.627171 5.96713 2.5
      vertex -10 10 2.5
      vertex -1.8541 5.70634 2.5
    endloop
  endfacet
  facet normal -0 0 1
    outer loop
      vertex 5.86889 -1.24747 2.5
      vertex 10 -10 2.5
      vertex 6 0 2.5
    endloop
  endfacet
  facet normal -0 0 1
    outer loop
      vertex 5.48127 -2.44042 2.5
      vertex 10 -10 2.5
      vertex 5.86889 -1.24747 2.5
    endloop
  endfacet
  facet normal -0 0 1
    outer loop
      vertex 4.8541 -3.52671 2.5
      vertex 10 -10 2.5
      vertex 5.48127 -2.44042 2.5
    endloop
  endfacet
  facet normal -0 0 1
    outer loop
      vertex 4.01478 -4.45887 2.5
      vertex 10 -10 2.5
      vertex 4.8541 -3.52671 2.5
    endloop
  endfacet
  facet normal -0 0 1
    outer loop
      vertex 3 -5.19615 2.5
      vertex 10 -10 2.5
      vertex 4.01478 -4.45887 2.5
    endloop
  endfacet
  facet normal -0 0 1
    outer loop
      vertex 1.8541 -5.70634 2.5
      vertex 10 -10 2.5
      vertex 3 -5.19615 2.5
    endloop
  endfacet
  facet normal -0 0 1
    outer loop
      vertex 0.627171 -5.96713 2.5
      vertex 10 -10 2.5
      vertex 1.8541 -5.70634 2.5
    endloop
  endfacet
  facet normal -0 0 1
    outer loop
      vertex -0.627171 -5.96713 2.5
      vertex 10 -10 2.5
      vertex 0.627171 -5.96713 2.5
    endloop
  endfacet
  facet normal 0 0 1
    outer loop
      vertex -10 -10 2.5
      vertex -0.627171 -5.96713 2.5
      vertex -1.8541 -5.70634 2.5
    endloop
  endfacet
  facet normal 0 0 1
    outer loop
      vertex -10 -10 2.5
      vertex -6 0 2.5
      vertex -10 10 2.5
    endloop
  endfacet
  facet normal 0 0 1
    outer loop
      vertex -6 0 2.5
      vertex -10 -10 2.5
      vertex -5.86889 -1.24747 2.5
    endloop
  endfacet
  facet normal 0 0 1
    outer loop
      vertex -0.627171 -5.96713 2.5
      vertex -10 -10 2.5
      vertex 10 -10 2.5
    endloop
  endfacet
  facet normal 0 0 1
    outer loop
      vertex -3 -5.19615 2.5
      vertex -10 -10 2.5
      vertex -1.8541 -5.70634 2.5
    endloop
  endfacet
  facet normal 0 0 1
    outer loop
      vertex -4.01478 -4.45887 2.5
      vertex -10 -10 2.5
      vertex -3 -5.19615 2.5
    endloop
  endfacet
  facet normal 0 0 1
    outer loop
      vertex -4.8541 -3.52671 2.5
      vertex -10 -10 2.5
      vertex -4.01478 -4.45887 2.5
    endloop
  endfacet
  facet normal 0 0 1
    outer loop
      vertex -5.48127 -2.44042 2.5
      vertex -10 -10 2.5
      vertex -4.8541 -3.52671 2.5
    endloop
  endfacet
  facet normal 0 0 1
    outer loop
      vertex -5.86889 -1.24747 2.5
      vertex -10 -10 2.5
      vertex -5.48127 -2.44042 2.5
    endloop
  endfacet
  facet normal 1 -0 0
    outer loop
      vertex 10 -10 2.5
      vertex 10 10 -2.5
      vertex 10 10 2.5
    endloop
  endfacet
  facet normal 1 0 0
    outer loop
      vertex 10 10 -2.5
      vertex 10 -10 2.5
      vertex 10 -10 -2.5
    endloop
  endfacet
  facet normal 0 0 -1
    outer loop
      vertex 10 -10 -2.5
      vertex 6 0 -2.5
      vertex 10 10 -2.5
    endloop
  endfacet
  facet normal 0 0 -1
    outer loop
      vertex 10 -10 -2.5
      vertex 5.86889 -1.24747 -2.5
      vertex 6 0 -2.5
    endloop
  endfacet
  facet normal 0 0 -1
    outer loop
      vertex 10 -10 -2.5
      vertex 5.48127 -2.44042 -2.5
      vertex 5.86889 -1.24747 -2.5
    endloop
  endfacet
  facet normal 0 0 -1
    outer loop
      vertex 10 -10 -2.5
      vertex 4.8541 -3.52671 -2.5
      vertex 5.48127 -2.44042 -2.5
    endloop
  endfacet
  facet normal 0 0 -1
    outer loop
      vertex 10 -10 -2.5
      vertex 4.01478 -4.45887 -2.5
      vertex 4.8541 -3.52671 -2.5
    endloop
  endfacet
  facet normal 0 0 -1
    outer loop
      vertex 10 -10 -2.5
      vertex 3 -5.19615 -2.5
      vertex 4.01478 -4.45887 -2.5
    endloop
  endfacet
  facet normal 0 0 -1
    outer loop
      vertex 10 -10 -2.5
      vertex 1.8541 -5.70634 -2.5
      vertex 3 -5.19615 -2.5
    endloop
  endfacet
  facet normal 0 0 -1
    outer loop
      vertex 10 -10 -2.5
      vertex 0.627171 -5.96713 -2.5
      vertex 1.8541 -5.70634 -2.5
    endloop
  endfacet
  facet normal 0 0 -1
    outer loop
      vertex 10 -10 -2.5
      vertex -0.627171 -5.96713 -2.5
      vertex 0.627171 -5.96713 -2.5
    endloop
  endfacet
  facet normal 0 0 -1
    outer loop
      vertex -10 -10 -2.5
      vertex -0.627171 -5.96713 -2.5
      vertex 10 -10 -2.5
    endloop
  endfacet
  facet normal -0 0 -1
    outer loop
      vertex -5.86889 -1.24747 -2.5
      vertex -10 -10 -2.5
      vertex -6 0 -2.5
    endloop
  endfacet
  facet normal -0 0 -1
    outer loop
      vertex -5.48127 -2.44042 -2.5
      vertex -10 -10 -2.5
      vertex -5.86889 -1.24747 -2.5
    endloop
  endfacet
  facet normal -0 0 -1
    outer loop
      vertex -4.8541 -3.52671 -2.5
      vertex -10 -10 -2.5
      vertex -5.48127 -2.44042 -2.5
    endloop
  endfacet
  facet normal -0 0 -1
    outer loop
      vertex -4.01478 -4.45887 -2.5
      vertex -10 -10 -2.5
      vertex -4.8541 -3.52671 -2.5
    endloop
  endfacet
  facet normal -0 0 -1
    outer loop
      vertex -3 -5.19615 -2.5
      vertex -10 -10 -2.5
      vertex -4.01478 -4.45887 -2.5
    endloop
  endfacet
  facet normal -0 0 -1
    outer loop
      vertex -1.8541 -5.70634 -2.5
      vertex -10 -10 -2.5
      vertex -3 -5.19615 -2.5
    endloop
  endfacet
  facet normal -0 0 -1
    outer loop
      vertex -0.627171 -5.96713 -2.5
      vertex -10 -10 -2.5
      vertex -1.8541 -5.70634 -2.5
    endloop
  endfacet
  facet normal 0 0 -1
    outer loop
      vertex 5.86889 1.24747 -2.5
      vertex 10 10 -2.5
      vertex 6 0 -2.5
    endloop
  endfacet
  facet normal 0 0 -1
    outer loop
      vertex 5.48127 2.44042 -2.5
      vertex 10 10 -2.5
      vertex 5.86889 1.24747 -2.5
    endloop
  endfacet
  facet normal 0 0 -1
    outer loop
      vertex 4.8541 3.52671 -2.5
      vertex 10 10 -2.5
      vertex 5.48127 2.44042 -2.5
    endloop
  endfacet
  facet normal 0 0 -1
    outer loop
      vertex 4.01478 4.45887 -2.5
      vertex 10 10 -2.5
      vertex 4.8541 3.52671 -2.5
    endloop
  endfacet
  facet normal 0 0 -1
    outer loop
      vertex 3 5.19615 -2.5
      vertex 10 10 -2.5
      vertex 4.01478 4.45887 -2.5
    endloop
  endfacet
  facet normal 0 0 -1
    outer loop
      vertex 1.8541 5.70634 -2.5
      vertex 10 10 -2.5
      vertex 3 5.19615 -2.5
    endloop
  endfacet
  facet normal 0 0 -1
    outer loop
      vertex 0.627171 5.96713 -2.5
      vertex 10 10 -2.5
      vertex 1.8541 5.70634 -2.5
    endloop
  endfacet
  facet normal 0 0 -1
    outer loop
      vertex -0.627171 5.96713 -2.5
      vertex 10 10 -2.5
      vertex 0.627171 5.96713 -2.5
    endloop
  endfacet
  facet normal 0 0 -1
    outer loop
      vertex -10 10 -2.5
      vertex -0.627171 5.96713 -2.5
      vertex -1.8541 5.70634 -2.5
    endloop
  endfacet
  facet normal 0 0 -1
    outer loop
      vertex -10 10 -2.5
      vertex -6 0 -2.5
      vertex -10 -10 -2.5
    endloop
  endfacet
  facet normal 0 0 -1
    outer loop
      vertex -6 0 -2.5
      vertex -10 10 -2.5
      vertex -5.86889 1.24747 -2.5
    endloop
  endfacet
  facet normal 0 0 -1
    outer loop
      vertex -0.627171 5.96713 -2.5
      vertex -10 10 -2.5
      vertex 10 10 -2.5
    endloop
  endfacet
  facet normal 0 0 -1
    outer loop
      vertex -3 5.19615 -2.5
      vertex -10 10 -2.5
      vertex -1.8541 5.70634 -2.5
    endloop
  endfacet
  facet normal 0 0 -1
    outer loop
      vertex -4.01478 4.45887 -2.5
      vertex -10 10 -2.5
      vertex -3 5.19615 -2.5
    endloop
  endfacet
  facet normal 0 0 -1
    outer loop
      vertex -4.8541 3.52671 -2.5
      vertex -10 10 -2.5
      vertex -4.01478 4.45887 -2.5
    endloop
  endfacet
  facet normal 0 0 -1
    outer loop
      vertex -5.48127 2.44042 -2.5
      vertex -10 10 -2.5
      vertex -4.8541 3.52671 -2.5
    endloop
  endfacet
  facet normal 0 0 -1
    outer loop
      vertex -5.86889 1.24747 -2.5
      vertex -10 10 -2.5
      vertex -5.48127 2.44042 -2.5
    endloop
  endfacet
  facet normal 0 -1 0
    outer loop
      vertex -10 -10 -2.5
      vertex 10 -10 2.5
      vertex -10 -10 2.5
    endloop
  endfacet
  facet normal 0 -1 -0
    outer loop
      vertex 10 -10 2.5
      vertex -10 -10 -2.5
      vertex 10 -10 -2.5
    endloop
  endfacet
  facet normal 0 1 -0
    outer loop
      vertex 10 10 -2.5
      vertex -10 10 2.5
      vertex 10 10 2.5
    endloop
  endfacet
  facet normal 0 1 0
    outer loop
      vertex -10 10 2.5
      vertex 10 10 -2.5
      vertex -10 10 -2.5
    endloop
  endfacet
  facet normal -0.994522 -0.104529 0
    outer loop
      vertex 6 0 -2.5
      vertex 5.86889 1.24747 2.5
      vertex 5.86889 1.24747 -2.5
    endloop
  endfacet
  facet normal -0.994522 -0.104529 0
    outer loop
      vertex 5.86889 1.24747 2.5
      vertex 6 0 -2.5
      vertex 6 0 2.5
    endloop
  endfacet
  facet normal 0.994522 -0.104529 0
    outer loop
      vertex -6 0 2.5
      vertex -5.86889 1.24747 -2.5
      vertex -5.86889 1.24747 2.5
    endloop
  endfacet
  facet normal 0.994522 -0.104529 0
    outer loop
      vertex -5.86889 1.24747 -2.5
      vertex -6 0 2.5
      vertex -6 0 -2.5
    endloop
  endfacet
  facet normal 0 -1 0
    outer loop
      vertex -0.627171 5.96713 -2.5
      vertex 0.627171 5.96713 2.5
      vertex -0.627171 5.96713 2.5
    endloop
  endfacet
  facet normal 0 -1 -0
    outer loop
      vertex 0.627171 5.96713 2.5
      vertex -0.627171 5.96713 -2.5
      vertex 0.627171 5.96713 -2.5
    endloop
  endfacet
  facet normal 0 1 -0
    outer loop
      vertex 0.627171 -5.96713 -2.5
      vertex -0.627171 -5.96713 2.5
      vertex 0.627171 -5.96713 2.5
    endloop
  endfacet
  facet normal 0 1 0
    outer loop
      vertex -0.627171 -5.96713 2.5
      vertex 0.627171 -5.96713 -2.5
      vertex -0.627171 -5.96713 -2.5
    endloop
  endfacet
  facet normal -0.587786 -0.809017 0
    outer loop
      vertex 3 5.19615 -2.5
      vertex 4.01478 4.45887 2.5
      vertex 3 5.19615 2.5
    endloop
  endfacet
  facet normal -0.587786 -0.809017 -0
    outer loop
      vertex 4.01478 4.45887 2.5
      vertex 3 5.19615 -2.5
      vertex 4.01478 4.45887 -2.5
    endloop
  endfacet
  facet normal -0.406737 -0.913545 0
    outer loop
      vertex 1.8541 5.70634 -2.5
      vertex 3 5.19615 2.5
      vertex 1.8541 5.70634 2.5
    endloop
  endfacet
  facet normal -0.406737 -0.913545 -0
    outer loop
      vertex 3 5.19615 2.5
      vertex 1.8541 5.70634 -2.5
      vertex 3 5.19615 -2.5
    endloop
  endfacet
  facet normal 0.743145 -0.669131 0
    outer loop
      vertex -4.8541 3.52671 2.5
      vertex -4.01478 4.45887 -2.5
      vertex -4.01478 4.45887 2.5
    endloop
  endfacet
  facet normal 0.743145 -0.669131 0
    outer loop
      vertex -4.01478 4.45887 -2.5
      vertex -4.8541 3.52671 2.5
      vertex -4.8541 3.52671 -2.5
    endloop
  endfacet
  facet normal 0.866025 -0.5 0
    outer loop
      vertex -5.48127 2.44042 2.5
      vertex -4.8541 3.52671 -2.5
      vertex -4.8541 3.52671 2.5
    endloop
  endfacet
  facet normal 0.866025 -0.5 0
    outer loop
      vertex -4.8541 3.52671 -2.5
      vertex -5.48127 2.44042 2.5
      vertex -5.48127 2.44042 -2.5
    endloop
  endfacet
  facet normal 0.406737 -0.913545 0
    outer loop
      vertex -3 5.19615 -2.5
      vertex -1.8541 5.70634 2.5
      vertex -3 5.19615 2.5
    endloop
  endfacet
  facet normal 0.406737 -0.913545 0
    outer loop
      vertex -1.8541 5.70634 2.5
      vertex -3 5.19615 -2.5
      vertex -1.8541 5.70634 -2.5
    endloop
  endfacet
  facet normal -0.951057 0.309017 0
    outer loop
      vertex 5.48127 -2.44042 -2.5
      vertex 5.86889 -1.24747 2.5
      vertex 5.86889 -1.24747 -2.5
    endloop
  endfacet
  facet normal -0.951057 0.309017 0
    outer loop
      vertex 5.86889 -1.24747 2.5
      vertex 5.48127 -2.44042 -2.5
      vertex 5.48127 -2.44042 2.5
    endloop
  endfacet
  facet normal -0.866025 -0.5 0
    outer loop
      vertex 5.48127 2.44042 -2.5
      vertex 4.8541 3.52671 2.5
      vertex 4.8541 3.52671 -2.5
    endloop
  endfacet
  facet normal -0.866025 -0.5 0
    outer loop
      vertex 4.8541 3.52671 2.5
      vertex 5.48127 2.44042 -2.5
      vertex 5.48127 2.44042 2.5
    endloop
  endfacet
  facet normal -0.951057 -0.309017 0
    outer loop
      vertex 5.86889 1.24747 -2.5
      vertex 5.48127 2.44042 2.5
      vertex 5.48127 2.44042 -2.5
    endloop
  endfacet
  facet normal -0.951057 -0.309017 0
    outer loop
      vertex 5.48127 2.44042 2.5
      vertex 5.86889 1.24747 -2.5
      vertex 5.86889 1.24747 2.5
    endloop
  endfacet
  facet normal -0.743145 -0.669131 0
    outer loop
      vertex 4.8541 3.52671 -2.5
      vertex 4.01478 4.45887 2.5
      vertex 4.01478 4.45887 -2.5
    endloop
  endfacet
  facet normal -0.743145 -0.669131 0
    outer loop
      vertex 4.01478 4.45887 2.5
      vertex 4.8541 3.52671 -2.5
      vertex 4.8541 3.52671 2.5
    endloop
  endfacet
  facet normal -0.207911 -0.978148 0
    outer loop
      vertex 0.627171 5.96713 -2.5
      vertex 1.8541 5.70634 2.5
      vertex 0.627171 5.96713 2.5
    endloop
  endfacet
  facet normal -0.207911 -0.978148 -0
    outer loop
      vertex 1.8541 5.70634 2.5
      vertex 0.627171 5.96713 -2.5
      vertex 1.8541 5.70634 -2.5
    endloop
  endfacet
  facet normal 0.951057 -0.309017 0
    outer loop
      vertex -5.86889 1.24747 2.5
      vertex -5.48127 2.44042 -2.5
      vertex -5.48127 2.44042 2.5
    endloop
  endfacet
  facet normal 0.951057 -0.309017 0
    outer loop
      vertex -5.48127 2.44042 -2.5
      vertex -5.86889 1.24747 2.5
      vertex -5.86889 1.24747 -2.5
    endloop
  endfacet
  facet normal 0.587785 -0.809017 0
    outer loop
      vertex -4.01478 4.45887 -2.5
      vertex -3 5.19615 2.5
      vertex -4.01478 4.45887 2.5
    endloop
  endfacet
  facet normal 0.587785 -0.809017 0
    outer loop
      vertex -3 5.19615 2.5
      vertex -4.01478 4.45887 -2.5
      vertex -3 5.19615 -2.5
    endloop
  endfacet
  facet normal 0.207911 -0.978148 0
    outer loop
      vertex -1.8541 5.70634 -2.5
      vertex -0.627171 5.96713 2.5
      vertex -1.8541 5.70634 2.5
    endloop
  endfacet
  facet normal 0.207911 -0.978148 0
    outer loop
      vertex -0.627171 5.96713 2.5
      vertex -1.8541 5.70634 -2.5
      vertex -0.627171 5.96713 -2.5
    endloop
  endfacet
  facet normal -0.994522 0.104529 0
    outer loop
      vertex 5.86889 -1.24747 -2.5
      vertex 6 0 2.5
      vertex 6 0 -2.5
    endloop
  endfacet
  facet normal -0.994522 0.104529 0
    outer loop
      vertex 6 0 2.5
      vertex 5.86889 -1.24747 -2.5
      vertex 5.86889 -1.24747 2.5
    endloop
  endfacet
  facet normal -0.207911 0.978148 0
    outer loop
      vertex 1.8541 -5.70634 -2.5
      vertex 0.627171 -5.96713 2.5
      vertex 1.8541 -5.70634 2.5
    endloop
  endfacet
  facet normal -0.207911 0.978148 0
    outer loop
      vertex 0.627171 -5.96713 2.5
      vertex 1.8541 -5.70634 -2.5
      vertex 0.627171 -5.96713 -2.5
    endloop
  endfacet
  facet normal -0.866025 0.5 0
    outer loop
      vertex 4.8541 -3.52671 -2.5
      vertex 5.48127 -2.44042 2.5
      vertex 5.48127 -2.44042 -2.5
    endloop
  endfacet
  facet normal -0.866025 0.5 0
    outer loop
      vertex 5.48127 -2.44042 2.5
      vertex 4.8541 -3.52671 -2.5
      vertex 4.8541 -3.52671 2.5
    endloop
  endfacet
  facet normal 0.866025 0.5 0
    outer loop
      vertex -4.8541 -3.52671 2.5
      vertex -5.48127 -2.44042 -2.5
      vertex -5.48127 -2.44042 2.5
    endloop
  endfacet
  facet normal 0.866025 0.5 0
    outer loop
      vertex -5.48127 -2.44042 -2.5
      vertex -4.8541 -3.52671 2.5
      vertex -4.8541 -3.52671 -2.5
    endloop
  endfacet
  facet normal 0.994522 0.104529 0
    outer loop
      vertex -5.86889 -1.24747 2.5
      vertex -6 0 -2.5
      vertex -6 0 2.5
    endloop
  endfacet
  facet normal 0.994522 0.104529 0
    outer loop
      vertex -6 0 -2.5
      vertex -5.86889 -1.24747 2.5
      vertex -5.86889 -1.24747 -2.5
    endloop
  endfacet
  facet normal -0.587786 0.809017 0
    outer loop
      vertex 4.01478 -4.45887 -2.5
      vertex 3 -5.19615 2.5
      vertex 4.01478 -4.45887 2.5
    endloop
  endfacet
  facet normal -0.587786 0.809017 0
    outer loop
      vertex 3 -5.19615 2.5
      vertex 4.01478 -4.45887 -2.5
      vertex 3 -5.19615 -2.5
    endloop
  endfacet
  facet normal -0.406737 0.913545 0
    outer loop
      vertex 3 -5.19615 -2.5
      vertex 1.8541 -5.70634 2.5
      vertex 3 -5.19615 2.5
    endloop
  endfacet
  facet normal -0.406737 0.913545 0
    outer loop
      vertex 1.8541 -5.70634 2.5
      vertex 3 -5.19615 -2.5
      vertex 1.8541 -5.70634 -2.5
    endloop
  endfacet
  facet normal 0.743145 0.669131 0
    outer loop
      vertex -4.01478 -4.45887 2.5
      vertex -4.8541 -3.52671 -2.5
      vertex -4.8541 -3.52671 2.5
    endloop
  endfacet
  facet normal 0.743145 0.669131 0
    outer loop
      vertex -4.8541 -3.52671 -2.5
      vertex -4.01478 -4.45887 2.5
      vertex -4.01478 -4.45887 -2.5
    endloop
  endfacet
  facet normal 0.951057 0.309017 0
    outer loop
      vertex -5.48127 -2.44042 2.5
      vertex -5.86889 -1.24747 -2.5
      vertex -5.86889 -1.24747 2.5
    endloop
  endfacet
  facet normal 0.951057 0.309017 0
    outer loop
      vertex -5.86889 -1.24747 -2.5
      vertex -5.48127 -2.44042 2.5
      vertex -5.48127 -2.44042 -2.5
    endloop
  endfacet
  facet normal -0.743145 0.669131 0
    outer loop
      vertex 4.01478 -4.45887 -2.5
      vertex 4.8541 -3.52671 2.5
      vertex 4.8541 -3.52671 -2.5
    endloop
  endfacet
  facet normal -0.743145 0.669131 0
    outer loop
      vertex 4.8541 -3.52671 2.5
      vertex 4.01478 -4.45887 -2.5
      vertex 4.01478 -4.45887 2.5
    endloop
  endfacet
  facet normal 0.587786 0.809017 -0
    outer loop
      vertex -3 -5.19615 -2.5
      vertex -4.01478 -4.45887 2.5
      vertex -3 -5.19615 2.5
    endloop
  endfacet
  facet normal 0.587786 0.809017 0
    outer loop
      vertex -4.01478 -4.45887 2.5
      vertex -3 -5.19615 -2.5
      vertex -4.01478 -4.45887 -2.5
    endloop
  endfacet
  facet normal 0.406737 0.913545 -0
    outer loop
      vertex -1.8541 -5.70634 -2.5
      vertex -3 -5.19615 2.5
      vertex -1.8541 -5.70634 2.5
    endloop
  endfacet
  facet normal 0.406737 0.913545 0
    outer loop
      vertex -3 -5.19615 2.5
      vertex -1.8541 -5.70634 -2.5
      vertex -3 -5.19615 -2.5
    endloop
  endfacet
  facet normal 0.207911 0.978148 -0
    outer loop
      vertex -0.627171 -5.96713 -2.5
      vertex -1.8541 -5.70634 2.5
      vertex -0.627171 -5.96713 2.5
    endloop
  endfacet
  facet normal 0.207911 0.978148 0
    outer loop
      vertex -1.8541 -5.70634 2.5
      vertex -0.627171 -5.96713 -2.5
      vertex -1.8541 -5.70634 -2.5
    endloop
  endfacet
endsolid OpenSCAD_Model
